<svg width="95" height="19" viewBox="0 0 95 19" fill="none" xmlns="http://www.w3.org/2000/svg">
<path d="M0.848 18V2.352H4.712L7.232 9.312C7.392 9.76 7.544 10.232 7.688 10.728C7.832 11.224 7.984 11.712 8.144 12.192H8.24C8.4 11.712 8.544 11.224 8.672 10.728C8.816 10.232 8.968 9.76 9.128 9.312L11.6 2.352H15.44V18H12.224V12.264C12.224 11.752 12.248 11.184 12.296 10.56C12.36 9.92 12.424 9.28 12.488 8.64C12.568 8 12.632 7.432 12.68 6.936H12.584L11.312 10.656L9.08 16.632H7.136L4.904 10.656L3.656 6.936H3.56C3.624 7.432 3.688 8 3.752 8.64C3.816 9.28 3.872 9.92 3.92 10.56C3.984 11.184 4.016 11.752 4.016 12.264V18H0.848ZM24.1693 18.288C23.0333 18.288 22.0093 18.04 21.0973 17.544C20.1853 17.048 19.4653 16.336 18.9373 15.408C18.4093 14.48 18.1453 13.36 18.1453 12.048C18.1453 10.752 18.4093 9.64 18.9373 8.712C19.4813 7.784 20.1853 7.072 21.0493 6.576C21.9133 6.064 22.8173 5.808 23.7613 5.808C24.8973 5.808 25.8333 6.064 26.5693 6.576C27.3213 7.072 27.8813 7.752 28.2493 8.616C28.6333 9.464 28.8253 10.432 28.8253 11.52C28.8253 11.824 28.8093 12.128 28.7773 12.432C28.7453 12.72 28.7133 12.936 28.6813 13.08H21.5533C21.7133 13.944 22.0733 14.584 22.6333 15C23.1933 15.4 23.8653 15.6 24.6493 15.6C25.4973 15.6 26.3533 15.336 27.2173 14.808L28.3933 16.944C27.7853 17.36 27.1053 17.688 26.3533 17.928C25.6013 18.168 24.8733 18.288 24.1693 18.288ZM21.5293 10.752H25.8253C25.8253 10.096 25.6653 9.56 25.3453 9.144C25.0413 8.712 24.5373 8.496 23.8333 8.496C23.2893 8.496 22.8013 8.688 22.3693 9.072C21.9373 9.44 21.6573 10 21.5293 10.752ZM35.5111 18.288C34.0391 18.288 32.8551 17.736 31.9591 16.632C31.0791 15.512 30.6391 13.984 30.6391 12.048C30.6391 10.752 30.8711 9.64 31.3351 8.712C31.8151 7.768 32.4311 7.048 33.1831 6.552C33.9511 6.056 34.7511 5.808 35.5831 5.808C36.2391 5.808 36.7911 5.92 37.2391 6.144C37.6871 6.368 38.1111 6.672 38.5111 7.056L38.3671 5.232V1.176H41.8951V18H39.0151L38.7751 16.824H38.6791C38.2631 17.24 37.7751 17.592 37.2151 17.88C36.6551 18.152 36.0871 18.288 35.5111 18.288ZM36.4231 15.408C36.8071 15.408 37.1511 15.328 37.4551 15.168C37.7751 15.008 38.0791 14.728 38.3671 14.328V9.456C38.0631 9.168 37.7351 8.968 37.3831 8.856C37.0471 8.744 36.7191 8.688 36.3991 8.688C35.8391 8.688 35.3431 8.96 34.9111 9.504C34.4791 10.032 34.2631 10.864 34.2631 12C34.2631 13.168 34.4471 14.032 34.8151 14.592C35.1991 15.136 35.7351 15.408 36.4231 15.408ZM45.0209 18V6.096H48.5489V18H45.0209ZM46.7729 4.344C46.1809 4.344 45.7009 4.176 45.3329 3.84C44.9649 3.504 44.7809 3.056 44.7809 2.496C44.7809 1.936 44.9649 1.488 45.3329 1.152C45.7009 0.815999 46.1809 0.647999 46.7729 0.647999C47.3649 0.647999 47.8449 0.815999 48.2129 1.152C48.5809 1.488 48.7649 1.936 48.7649 2.496C48.7649 3.056 48.5809 3.504 48.2129 3.84C47.8449 4.176 47.3649 4.344 46.7729 4.344Z" fill="black"/>
<path d="M56.8378 18.288C55.7338 18.288 54.7338 18.048 53.8378 17.568C52.9578 17.072 52.2538 16.36 51.7258 15.432C51.2138 14.488 50.9578 13.36 50.9578 12.048C50.9578 10.72 51.2458 9.592 51.8218 8.664C52.3978 7.736 53.1578 7.032 54.1018 6.552C55.0458 6.056 56.0618 5.808 57.1497 5.808C57.8858 5.808 58.5338 5.928 59.0938 6.168C59.6698 6.408 60.1818 6.712 60.6298 7.08L58.9738 9.36C58.4138 8.896 57.8778 8.664 57.3658 8.664C56.5178 8.664 55.8378 8.968 55.3258 9.576C54.8298 10.184 54.5818 11.008 54.5818 12.048C54.5818 13.072 54.8298 13.896 55.3258 14.52C55.8378 15.128 56.4778 15.432 57.2458 15.432C57.6298 15.432 58.0058 15.352 58.3738 15.192C58.7418 15.016 59.0778 14.808 59.3818 14.568L60.7738 16.872C60.1818 17.384 59.5418 17.752 58.8538 17.976C58.1658 18.184 57.4938 18.288 56.8378 18.288ZM65.6225 18.288C64.5345 18.288 63.6705 17.944 63.0305 17.256C62.3905 16.552 62.0705 15.696 62.0705 14.688C62.0705 13.44 62.5985 12.464 63.6545 11.76C64.7105 11.056 66.4145 10.584 68.7665 10.344C68.7345 9.816 68.5745 9.4 68.2865 9.096C68.0145 8.776 67.5505 8.616 66.8945 8.616C66.3985 8.616 65.8945 8.712 65.3825 8.904C64.8705 9.096 64.3265 9.36 63.7505 9.696L62.4785 7.368C63.2305 6.904 64.0305 6.528 64.8785 6.24C65.7425 5.952 66.6385 5.808 67.5665 5.808C69.0865 5.808 70.2545 6.248 71.0705 7.128C71.8865 8.008 72.2945 9.36 72.2945 11.184V18H69.4145L69.1745 16.776H69.0785C68.5825 17.224 68.0465 17.592 67.4705 17.88C66.9105 18.152 66.2945 18.288 65.6225 18.288ZM66.8225 15.552C67.2225 15.552 67.5665 15.464 67.8545 15.288C68.1585 15.096 68.4625 14.848 68.7665 14.544V12.456C67.5185 12.616 66.6545 12.872 66.1745 13.224C65.6945 13.56 65.4545 13.96 65.4545 14.424C65.4545 14.808 65.5745 15.096 65.8145 15.288C66.0705 15.464 66.4065 15.552 66.8225 15.552ZM75.2788 18V6.096H78.1588L78.3988 8.184H78.4948C78.9268 7.384 79.4468 6.792 80.0547 6.408C80.6628 6.008 81.2708 5.808 81.8788 5.808C82.2148 5.808 82.4948 5.832 82.7188 5.88C82.9428 5.912 83.1348 5.968 83.2948 6.048L82.7188 9.096C82.5108 9.032 82.3028 8.984 82.0948 8.952C81.9028 8.92 81.6788 8.904 81.4228 8.904C80.9748 8.904 80.5028 9.072 80.0068 9.408C79.5268 9.728 79.1268 10.288 78.8068 11.088V18H75.2788ZM89.9349 18.288C88.7989 18.288 87.7749 18.04 86.8629 17.544C85.9509 17.048 85.2309 16.336 84.7029 15.408C84.1749 14.48 83.9109 13.36 83.9109 12.048C83.9109 10.752 84.1749 9.64 84.7029 8.712C85.2469 7.784 85.9509 7.072 86.8149 6.576C87.6789 6.064 88.5829 5.808 89.5269 5.808C90.6629 5.808 91.5989 6.064 92.3349 6.576C93.0869 7.072 93.6469 7.752 94.0149 8.616C94.3989 9.464 94.5909 10.432 94.5909 11.52C94.5909 11.824 94.5749 12.128 94.5429 12.432C94.5109 12.72 94.4789 12.936 94.4469 13.08H87.3189C87.4789 13.944 87.8389 14.584 88.3989 15C88.9589 15.4 89.6309 15.6 90.4149 15.6C91.2629 15.6 92.1189 15.336 92.9829 14.808L94.1589 16.944C93.5509 17.36 92.8709 17.688 92.1189 17.928C91.3669 18.168 90.6389 18.288 89.9349 18.288ZM87.2949 10.752H91.5909C91.5909 10.096 91.4309 9.56 91.1109 9.144C90.8069 8.712 90.3029 8.496 89.5989 8.496C89.0549 8.496 88.5669 8.688 88.1349 9.072C87.7029 9.44 87.4229 10 87.2949 10.752Z" fill="#1CB5BD"/>
</svg>
