<svg width="24" height="24" viewBox="0 0 24 24" fill="none" xmlns="http://www.w3.org/2000/svg">
<path d="M4 6C4 5.73478 4.10536 5.48043 4.29289 5.29289C4.48043 5.10536 4.73478 5 5 5H19C19.2652 5 19.5196 5.10536 19.7071 5.29289C19.8946 5.48043 20 5.73478 20 6V10H4V6Z" stroke="#1376F8" stroke-width="2" stroke-linejoin="round"/>
<path d="M8 6.5V3.5M16 6.5V3.5" stroke="#1376F8" stroke-width="2" stroke-linecap="round"/>
<path d="M4 10H20V19C20 19.2652 19.8946 19.5196 19.7071 19.7071C19.5196 19.8946 19.2652 20 19 20H5C4.73478 20 4.48043 19.8946 4.29289 19.7071C4.10536 19.5196 4 19.2652 4 19V10Z" stroke="#1376F8" stroke-width="2" stroke-linejoin="round"/>
</svg>
