<svg width="92" height="28" viewBox="0 0 92 28" fill="none" xmlns="http://www.w3.org/2000/svg">
<rect width="92" height="28" rx="4" fill="#AAA9A9"/>
<path d="M27.9982 19H25.8723L25.8859 17.6396H27.9982C28.6135 17.6396 29.1284 17.5052 29.5432 17.2363C29.9624 16.9674 30.2769 16.5824 30.4865 16.0811C30.7007 15.5798 30.8078 14.9827 30.8078 14.29V13.75C30.8078 13.2122 30.7463 12.736 30.6232 12.3213C30.5048 11.9066 30.327 11.5579 30.09 11.2754C29.8576 10.9928 29.5705 10.7786 29.2287 10.6328C28.8915 10.487 28.5018 10.4141 28.0598 10.4141H25.8312V9.04688H28.0598C28.7206 9.04688 29.3244 9.15853 29.8713 9.38184C30.4182 9.60059 30.8898 9.91732 31.2863 10.332C31.6874 10.7467 31.995 11.2435 32.2092 11.8223C32.4234 12.401 32.5305 13.0482 32.5305 13.7637V14.29C32.5305 15.0055 32.4234 15.6527 32.2092 16.2314C31.995 16.8102 31.6874 17.307 31.2863 17.7217C30.8853 18.1318 30.4068 18.4486 29.8508 18.6719C29.2993 18.8906 28.6818 19 27.9982 19ZM26.8225 9.04688V19H25.1066V9.04688H26.8225ZM28.6408 13.3945V14.5293H24.0471V13.3945H28.6408ZM38.539 17.5166V13.9893C38.539 13.7249 38.4911 13.4971 38.3954 13.3057C38.2997 13.1143 38.1539 12.9661 37.9579 12.8613C37.7665 12.7565 37.525 12.7041 37.2333 12.7041C36.9644 12.7041 36.732 12.7497 36.5361 12.8408C36.3401 12.932 36.1874 13.055 36.078 13.21C35.9687 13.3649 35.914 13.5404 35.914 13.7363H34.2734C34.2734 13.4447 34.344 13.1621 34.4853 12.8887C34.6265 12.6152 34.8316 12.3714 35.1005 12.1572C35.3694 11.943 35.6907 11.7744 36.0644 11.6514C36.4381 11.5283 36.8573 11.4668 37.3222 11.4668C37.8782 11.4668 38.3704 11.5602 38.7987 11.7471C39.2317 11.9339 39.5712 12.2165 39.8173 12.5947C40.068 12.9684 40.1933 13.4378 40.1933 14.0029V17.291C40.1933 17.6283 40.2161 17.9313 40.2616 18.2002C40.3118 18.4645 40.3824 18.6947 40.4736 18.8906V19H38.7851C38.7076 18.8223 38.6461 18.5967 38.6005 18.3232C38.5595 18.0452 38.539 17.7764 38.539 17.5166ZM38.7782 14.502L38.7919 15.5205H37.6093C37.304 15.5205 37.0351 15.5501 36.8027 15.6094C36.5702 15.6641 36.3765 15.7461 36.2216 15.8555C36.0667 15.9648 35.9504 16.097 35.873 16.252C35.7955 16.4069 35.7568 16.5824 35.7568 16.7783C35.7568 16.9743 35.8023 17.1543 35.8935 17.3184C35.9846 17.4779 36.1168 17.6032 36.29 17.6943C36.4677 17.7855 36.6819 17.8311 36.9325 17.8311C37.2698 17.8311 37.5637 17.7627 37.8144 17.626C38.0696 17.4847 38.2701 17.3138 38.4159 17.1133C38.5618 16.9082 38.6392 16.7145 38.6484 16.5322L39.1816 17.2637C39.1269 17.4505 39.0334 17.651 38.9013 17.8652C38.7691 18.0794 38.5959 18.2845 38.3818 18.4805C38.1721 18.6719 37.9192 18.8291 37.623 18.9521C37.3313 19.0752 36.9941 19.1367 36.6112 19.1367C36.1282 19.1367 35.6975 19.041 35.3193 18.8496C34.941 18.6536 34.6448 18.3916 34.4306 18.0635C34.2164 17.7308 34.1093 17.3548 34.1093 16.9355C34.1093 16.5436 34.1822 16.1973 34.328 15.8965C34.4784 15.5911 34.6972 15.3359 34.9843 15.1309C35.276 14.9258 35.6314 14.7708 36.0507 14.666C36.47 14.5566 36.9485 14.502 37.4862 14.502H38.7782ZM38.8808 8.58203L39.8857 8.65723C39.8857 8.98991 39.8196 9.28841 39.6874 9.55273C39.5553 9.8125 39.3752 10.0176 39.1474 10.168C38.9195 10.3184 38.662 10.3936 38.3749 10.3936C38.1516 10.3936 37.9625 10.3617 37.8075 10.2979C37.6526 10.234 37.5113 10.1611 37.3837 10.0791C37.2561 9.99707 37.1239 9.92643 36.9872 9.86719C36.8551 9.80339 36.6978 9.77148 36.5155 9.77148C36.3424 9.77148 36.1943 9.83529 36.0712 9.96289C35.9527 10.0905 35.8935 10.2614 35.8935 10.4756L34.8818 10.4209C34.8818 10.0928 34.9478 9.79655 35.08 9.53223C35.2122 9.2679 35.3922 9.05827 35.62 8.90332C35.8479 8.74837 36.1054 8.6709 36.3925 8.6709C36.5793 8.6709 36.748 8.7028 36.8984 8.7666C37.0533 8.82585 37.1991 8.89648 37.3359 8.97852C37.4771 9.06055 37.6207 9.13346 37.7665 9.19727C37.9124 9.26107 38.0741 9.29297 38.2519 9.29297C38.4251 9.29297 38.5732 9.22689 38.6962 9.09473C38.8193 8.96257 38.8808 8.79167 38.8808 8.58203ZM47.5892 8.5V19H45.9486V8.5H47.5892ZM47.3021 15.0283L46.7689 15.0215C46.7735 14.5111 46.8441 14.0394 46.9808 13.6064C47.1221 13.1735 47.3181 12.7975 47.5687 12.4785C47.8239 12.1549 48.1293 11.9066 48.4847 11.7334C48.8402 11.5557 49.2344 11.4668 49.6673 11.4668C50.0319 11.4668 50.3601 11.5169 50.6517 11.6172C50.9479 11.7174 51.2032 11.8792 51.4173 12.1025C51.6315 12.3213 51.7933 12.6084 51.9027 12.9639C52.0166 13.3148 52.0736 13.7432 52.0736 14.249V19H50.4193V14.2354C50.4193 13.8799 50.3669 13.5973 50.2621 13.3877C50.1618 13.1781 50.0137 13.0277 49.8177 12.9365C49.6218 12.8408 49.3825 12.793 49.1 12.793C48.8037 12.793 48.5417 12.8522 48.3138 12.9707C48.0905 13.0892 47.9037 13.251 47.7533 13.4561C47.6029 13.6611 47.489 13.8981 47.4115 14.167C47.3386 14.4359 47.3021 14.723 47.3021 15.0283ZM58.4718 17.2568V11.6035H60.1261V19H58.5675L58.4718 17.2568ZM58.7042 15.7188L59.2579 15.7051C59.2579 16.2018 59.2032 16.6598 59.0938 17.0791C58.9845 17.4938 58.8158 17.8561 58.588 18.166C58.3601 18.4714 58.0684 18.7106 57.713 18.8838C57.3575 19.0524 56.9314 19.1367 56.4346 19.1367C56.0746 19.1367 55.7442 19.0843 55.4434 18.9795C55.1427 18.8747 54.8829 18.7129 54.6641 18.4941C54.4499 18.2754 54.2836 17.9906 54.1651 17.6396C54.0466 17.2887 53.9874 16.8695 53.9874 16.3818V11.6035H55.6348V16.3955C55.6348 16.6644 55.6667 16.89 55.7305 17.0723C55.7943 17.25 55.8809 17.3936 55.9903 17.5029C56.0997 17.6123 56.2273 17.6898 56.3731 17.7354C56.519 17.7809 56.6739 17.8037 56.838 17.8037C57.3074 17.8037 57.6765 17.7126 57.9454 17.5303C58.2188 17.3434 58.4125 17.0928 58.5264 16.7783C58.6449 16.4639 58.7042 16.1107 58.7042 15.7188ZM64.241 18.1934L66.2508 11.6035H68.0145L65.0477 20.1279C64.9793 20.3102 64.8904 20.5085 64.7811 20.7227C64.6717 20.9368 64.5281 21.1396 64.3504 21.3311C64.1772 21.527 63.9607 21.6842 63.701 21.8027C63.4412 21.9258 63.1268 21.9873 62.7576 21.9873C62.6118 21.9873 62.4705 21.9736 62.3338 21.9463C62.2016 21.9235 62.0763 21.8984 61.9578 21.8711L61.951 20.6133C61.9966 20.6178 62.0512 20.6224 62.115 20.627C62.1834 20.6315 62.2381 20.6338 62.2791 20.6338C62.5525 20.6338 62.7804 20.5996 62.9627 20.5312C63.145 20.4674 63.2931 20.3626 63.407 20.2168C63.5255 20.071 63.6258 19.875 63.7078 19.6289L64.241 18.1934ZM63.1063 11.6035L64.8631 17.1406L65.157 18.877L64.0154 19.1709L61.3289 11.6035H63.1063ZM65.3895 10.3799H64.1658L64.1043 9.40234C64.3367 9.38867 64.5236 9.36589 64.6648 9.33398C64.8061 9.29753 64.9087 9.2474 64.9725 9.18359C65.0408 9.11523 65.075 9.02637 65.075 8.91699C65.075 8.82585 65.0477 8.74837 64.993 8.68457C64.9428 8.62077 64.8699 8.57064 64.7742 8.53418C64.6785 8.49316 64.5669 8.46582 64.4393 8.45215C64.3117 8.43392 64.1727 8.4248 64.0223 8.4248L64.0701 7.59766C64.4575 7.59766 64.797 7.62956 65.0887 7.69336C65.3849 7.7526 65.631 7.83919 65.827 7.95312C66.0275 8.06706 66.1779 8.20378 66.2781 8.36328C66.3829 8.52279 66.4354 8.7028 66.4354 8.90332C66.4354 9.23145 66.326 9.47298 66.1072 9.62793C65.8885 9.78288 65.6492 9.87858 65.3895 9.91504V10.3799Z" fill="#3C4959"/>
</svg>
