<svg width="92" height="28" viewBox="0 0 92 28" fill="none" xmlns="http://www.w3.org/2000/svg">
<rect width="92" height="28" rx="4" fill="#E7EDFF"/>
<path d="M13.5167 19H11.3907L11.4044 17.6396H13.5167C14.132 17.6396 14.6469 17.5052 15.0616 17.2363C15.4809 16.9674 15.7954 16.5824 16.005 16.0811C16.2192 15.5798 16.3263 14.9827 16.3263 14.29V13.75C16.3263 13.2122 16.2648 12.736 16.1417 12.3213C16.0232 11.9066 15.8455 11.5579 15.6085 11.2754C15.3761 10.9928 15.089 10.7786 14.7472 10.6328C14.4099 10.487 14.0203 10.4141 13.5782 10.4141H11.3497V9.04688H13.5782C14.2391 9.04688 14.8429 9.15853 15.3898 9.38184C15.9366 9.60059 16.4083 9.91732 16.8048 10.332C17.2058 10.7467 17.5135 11.2435 17.7277 11.8223C17.9419 12.401 18.0489 13.0482 18.0489 13.7637V14.29C18.0489 15.0055 17.9419 15.6527 17.7277 16.2314C17.5135 16.8102 17.2058 17.307 16.8048 17.7217C16.4038 18.1318 15.9252 18.4486 15.3693 18.6719C14.8178 18.8906 14.2003 19 13.5167 19ZM12.3409 9.04688V19H10.6251V9.04688H12.3409ZM14.1593 13.3945V14.5293H9.56555V13.3945H14.1593ZM24.0575 17.5166V13.9893C24.0575 13.7249 24.0096 13.4971 23.9139 13.3057C23.8182 13.1143 23.6724 12.9661 23.4764 12.8613C23.285 12.7565 23.0435 12.7041 22.7518 12.7041C22.4829 12.7041 22.2505 12.7497 22.0545 12.8408C21.8586 12.932 21.7059 13.055 21.5965 13.21C21.4871 13.3649 21.4325 13.5404 21.4325 13.7363H19.7918C19.7918 13.4447 19.8625 13.1621 20.0038 12.8887C20.145 12.6152 20.3501 12.3714 20.619 12.1572C20.8879 11.943 21.2092 11.7744 21.5829 11.6514C21.9566 11.5283 22.3758 11.4668 22.8407 11.4668C23.3967 11.4668 23.8888 11.5602 24.3172 11.7471C24.7502 11.9339 25.0897 12.2165 25.3358 12.5947C25.5864 12.9684 25.7118 13.4378 25.7118 14.0029V17.291C25.7118 17.6283 25.7345 17.9313 25.7801 18.2002C25.8302 18.4645 25.9009 18.6947 25.992 18.8906V19H24.3036C24.2261 18.8223 24.1646 18.5967 24.119 18.3232C24.078 18.0452 24.0575 17.7764 24.0575 17.5166ZM24.2967 14.502L24.3104 15.5205H23.1278C22.8224 15.5205 22.5536 15.5501 22.3211 15.6094C22.0887 15.6641 21.895 15.7461 21.7401 15.8555C21.5851 15.9648 21.4689 16.097 21.3914 16.252C21.314 16.4069 21.2752 16.5824 21.2752 16.7783C21.2752 16.9743 21.3208 17.1543 21.412 17.3184C21.5031 17.4779 21.6353 17.6032 21.8084 17.6943C21.9862 17.7855 22.2004 17.8311 22.451 17.8311C22.7883 17.8311 23.0822 17.7627 23.3329 17.626C23.5881 17.4847 23.7886 17.3138 23.9344 17.1133C24.0802 16.9082 24.1577 16.7145 24.1668 16.5322L24.7 17.2637C24.6454 17.4505 24.5519 17.651 24.4198 17.8652C24.2876 18.0794 24.1144 18.2845 23.9002 18.4805C23.6906 18.6719 23.4377 18.8291 23.1414 18.9521C22.8498 19.0752 22.5125 19.1367 22.1297 19.1367C21.6467 19.1367 21.216 19.041 20.8377 18.8496C20.4595 18.6536 20.1633 18.3916 19.9491 18.0635C19.7349 17.7308 19.6278 17.3548 19.6278 16.9355C19.6278 16.5436 19.7007 16.1973 19.8465 15.8965C19.9969 15.5911 20.2157 15.3359 20.5028 15.1309C20.7944 14.9258 21.1499 14.7708 21.5692 14.666C21.9885 14.5566 22.467 14.502 23.0047 14.502H24.2967ZM29.3482 13.1826V19H27.7007V11.6035H29.2525L29.3482 13.1826ZM29.0543 15.0283L28.5211 15.0215C28.5256 14.4974 28.5985 14.0166 28.7398 13.5791C28.8856 13.1416 29.0862 12.7656 29.3414 12.4512C29.6011 12.1367 29.911 11.8952 30.2711 11.7266C30.6311 11.5534 31.0321 11.4668 31.4742 11.4668C31.8296 11.4668 32.1509 11.5169 32.438 11.6172C32.7297 11.7129 32.9781 11.8701 33.1832 12.0889C33.3928 12.3076 33.5523 12.5924 33.6617 12.9434C33.7711 13.2897 33.8257 13.7158 33.8257 14.2217V19H32.1714V14.2148C32.1714 13.8594 32.119 13.5791 32.0142 13.374C31.914 13.1644 31.7658 13.0163 31.5699 12.9297C31.3785 12.8385 31.1392 12.793 30.8521 12.793C30.5696 12.793 30.3166 12.8522 30.0933 12.9707C29.87 13.0892 29.6809 13.251 29.5259 13.4561C29.3755 13.6611 29.2593 13.8981 29.1773 14.167C29.0953 14.4359 29.0543 14.723 29.0543 15.0283ZM40.5247 11.6035H42.0218V18.7949C42.0218 19.4603 41.8805 20.0254 41.5979 20.4902C41.3154 20.9551 40.9212 21.3083 40.4153 21.5498C39.9095 21.7959 39.3238 21.9189 38.6585 21.9189C38.3759 21.9189 38.0615 21.8779 37.7151 21.7959C37.3733 21.7139 37.0406 21.5817 36.7171 21.3994C36.3981 21.2217 36.1315 20.987 35.9173 20.6953L36.6897 19.7246C36.9541 20.0391 37.2457 20.2692 37.5647 20.415C37.8837 20.5609 38.2187 20.6338 38.5696 20.6338C38.9479 20.6338 39.2692 20.5632 39.5335 20.4219C39.8024 20.2852 40.0097 20.0824 40.1555 19.8135C40.3014 19.5446 40.3743 19.2165 40.3743 18.8291V13.2783L40.5247 11.6035ZM35.5003 15.3838V15.2402C35.5003 14.6797 35.5686 14.1693 35.7054 13.709C35.8421 13.2441 36.038 12.8454 36.2932 12.5127C36.5485 12.1755 36.8583 11.918 37.2229 11.7402C37.5875 11.5579 37.9999 11.4668 38.4602 11.4668C38.9388 11.4668 39.3466 11.5534 39.6839 11.7266C40.0257 11.8997 40.3105 12.1481 40.5384 12.4717C40.7662 12.7907 40.944 13.1735 41.0716 13.6201C41.2037 14.0622 41.3017 14.5544 41.3655 15.0967V15.5547C41.3063 16.0833 41.206 16.5664 41.0647 17.0039C40.9235 17.4414 40.7366 17.8197 40.5042 18.1387C40.2718 18.4577 39.9846 18.7038 39.6429 18.877C39.3056 19.0501 38.9069 19.1367 38.4466 19.1367C37.9954 19.1367 37.5875 19.0433 37.2229 18.8564C36.8629 18.6696 36.553 18.4076 36.2932 18.0703C36.038 17.7331 35.8421 17.3366 35.7054 16.8809C35.5686 16.4206 35.5003 15.9215 35.5003 15.3838ZM37.1477 15.2402V15.3838C37.1477 15.721 37.1796 16.0355 37.2434 16.3271C37.3118 16.6188 37.4143 16.8763 37.5511 17.0996C37.6923 17.3184 37.8701 17.4915 38.0843 17.6191C38.303 17.7422 38.5605 17.8037 38.8567 17.8037C39.2441 17.8037 39.5608 17.7217 39.8069 17.5576C40.0576 17.3936 40.249 17.1725 40.3811 16.8945C40.5179 16.612 40.6136 16.2975 40.6682 15.9512V14.7139C40.6409 14.445 40.5839 14.1943 40.4973 13.9619C40.4153 13.7295 40.3037 13.5267 40.1624 13.3535C40.0211 13.1758 39.8434 13.0391 39.6292 12.9434C39.415 12.8431 39.1621 12.793 38.8704 12.793C38.5742 12.793 38.3167 12.8568 38.0979 12.9844C37.8792 13.112 37.6992 13.2874 37.5579 13.5107C37.4212 13.734 37.3186 13.9938 37.2503 14.29C37.1819 14.5863 37.1477 14.903 37.1477 15.2402ZM49.4382 8.5V19H47.7839V8.5H49.4382ZM54.032 11.6035L50.8122 15.1719L49.0486 16.9766L48.6179 15.582L49.9509 13.9346L52.0427 11.6035H54.032ZM52.3982 19L49.9988 15.5273L51.0378 14.3721L54.3054 19H52.3982ZM56.9848 8.5V19H55.3442V8.5H56.9848ZM56.6977 15.0283L56.1645 15.0215C56.1691 14.5111 56.2397 14.0394 56.3764 13.6064C56.5177 13.1735 56.7136 12.7975 56.9643 12.4785C57.2195 12.1549 57.5248 11.9066 57.8803 11.7334C58.2358 11.5557 58.63 11.4668 59.0629 11.4668C59.4275 11.4668 59.7556 11.5169 60.0473 11.6172C60.3435 11.7174 60.5987 11.8792 60.8129 12.1025C61.0271 12.3213 61.1889 12.6084 61.2983 12.9639C61.4122 13.3148 61.4692 13.7432 61.4692 14.249V19H59.8149V14.2354C59.8149 13.8799 59.7625 13.5973 59.6577 13.3877C59.5574 13.1781 59.4093 13.0277 59.2133 12.9365C59.0174 12.8408 58.7781 12.793 58.4955 12.793C58.1993 12.793 57.9373 12.8522 57.7094 12.9707C57.4861 13.0892 57.2993 13.251 57.1489 13.4561C56.9985 13.6611 56.8845 13.8981 56.8071 14.167C56.7342 14.4359 56.6977 14.723 56.6977 15.0283ZM67.5871 17.5166V13.9893C67.5871 13.7249 67.5392 13.4971 67.4435 13.3057C67.3478 13.1143 67.202 12.9661 67.006 12.8613C66.8146 12.7565 66.5731 12.7041 66.2814 12.7041C66.0125 12.7041 65.7801 12.7497 65.5841 12.8408C65.3882 12.932 65.2355 13.055 65.1261 13.21C65.0168 13.3649 64.9621 13.5404 64.9621 13.7363H63.3214C63.3214 13.4447 63.3921 13.1621 63.5334 12.8887C63.6746 12.6152 63.8797 12.3714 64.1486 12.1572C64.4175 11.943 64.7388 11.7744 65.1125 11.6514C65.4862 11.5283 65.9054 11.4668 66.3703 11.4668C66.9263 11.4668 67.4185 11.5602 67.8468 11.7471C68.2798 11.9339 68.6193 12.2165 68.8654 12.5947C69.116 12.9684 69.2414 13.4378 69.2414 14.0029V17.291C69.2414 17.6283 69.2642 17.9313 69.3097 18.2002C69.3599 18.4645 69.4305 18.6947 69.5216 18.8906V19H67.8332C67.7557 18.8223 67.6942 18.5967 67.6486 18.3232C67.6076 18.0452 67.5871 17.7764 67.5871 17.5166ZM67.8263 14.502L67.84 15.5205H66.6574C66.352 15.5205 66.0832 15.5501 65.8507 15.6094C65.6183 15.6641 65.4246 15.7461 65.2697 15.8555C65.1147 15.9648 64.9985 16.097 64.9211 16.252C64.8436 16.4069 64.8048 16.5824 64.8048 16.7783C64.8048 16.9743 64.8504 17.1543 64.9416 17.3184C65.0327 17.4779 65.1649 17.6032 65.338 17.6943C65.5158 17.7855 65.73 17.8311 65.9806 17.8311C66.3179 17.8311 66.6118 17.7627 66.8625 17.626C67.1177 17.4847 67.3182 17.3138 67.464 17.1133C67.6099 16.9082 67.6873 16.7145 67.6964 16.5322L68.2296 17.2637C68.175 17.4505 68.0815 17.651 67.9494 17.8652C67.8172 18.0794 67.644 18.2845 67.4298 18.4805C67.2202 18.6719 66.9673 18.8291 66.6711 18.9521C66.3794 19.0752 66.0421 19.1367 65.6593 19.1367C65.1763 19.1367 64.7456 19.041 64.3673 18.8496C63.9891 18.6536 63.6929 18.3916 63.4787 18.0635C63.2645 17.7308 63.1574 17.3548 63.1574 16.9355C63.1574 16.5436 63.2303 16.1973 63.3761 15.8965C63.5265 15.5911 63.7453 15.3359 64.0324 15.1309C64.324 14.9258 64.6795 14.7708 65.0988 14.666C65.5181 14.5566 65.9966 14.502 66.5343 14.502H67.8263ZM65.6046 10.5576L66.9377 8.5H68.797L66.9377 10.5576H65.6046ZM72.8915 13.1074V19H71.244V11.6035H72.7958L72.8915 13.1074ZM72.6249 15.0283L72.0643 15.0215C72.0643 14.5111 72.1281 14.0394 72.2557 13.6064C72.3833 13.1735 72.5702 12.7975 72.8163 12.4785C73.0624 12.1549 73.3677 11.9066 73.7323 11.7334C74.1014 11.5557 74.5276 11.4668 75.0106 11.4668C75.3479 11.4668 75.6555 11.5169 75.9335 11.6172C76.216 11.7129 76.4598 11.8656 76.6649 12.0752C76.8746 12.2848 77.0341 12.5537 77.1434 12.8818C77.2574 13.21 77.3143 13.6064 77.3143 14.0713V19H75.6669V14.2148C75.6669 13.8548 75.6122 13.5723 75.5028 13.3672C75.398 13.1621 75.2453 13.0163 75.0448 12.9297C74.8488 12.8385 74.6141 12.793 74.3407 12.793C74.0308 12.793 73.7665 12.8522 73.5477 12.9707C73.3335 13.0892 73.1581 13.251 73.0214 13.4561C72.8847 13.6611 72.7844 13.8981 72.7206 14.167C72.6568 14.4359 72.6249 14.723 72.6249 15.0283ZM77.2118 14.5908L76.4393 14.7617C76.4393 14.3151 76.5009 13.8936 76.6239 13.4971C76.7515 13.096 76.9361 12.7451 77.1776 12.4443C77.4237 12.139 77.7268 11.8997 78.0868 11.7266C78.4468 11.5534 78.8593 11.4668 79.3241 11.4668C79.7024 11.4668 80.0396 11.5192 80.3358 11.624C80.6366 11.7243 80.8918 11.8838 81.1014 12.1025C81.3111 12.3213 81.4706 12.6061 81.58 12.957C81.6893 13.3034 81.744 13.7227 81.744 14.2148V19H80.0897V14.208C80.0897 13.8343 80.035 13.5449 79.9257 13.3398C79.8208 13.1348 79.6705 12.9935 79.4745 12.916C79.2785 12.834 79.0438 12.793 78.7704 12.793C78.5152 12.793 78.2896 12.8408 78.0936 12.9365C77.9022 13.0277 77.7404 13.1576 77.6083 13.3262C77.4761 13.4902 77.3759 13.6794 77.3075 13.8936C77.2437 14.1077 77.2118 14.3402 77.2118 14.5908Z" fill="#1376F8"/>
</svg>
