<svg width="92" height="28" viewBox="0 0 92 28" fill="none" xmlns="http://www.w3.org/2000/svg">
<rect width="92" height="28" rx="4" fill="#E7EDFF"/>
<rect width="92" height="28" rx="4" fill="#BFF8C5"/>
<path d="M16.1931 13.2031V14.5635H10.9089V13.2031H16.1931ZM11.3328 9.04688V19H9.61695V9.04688H11.3328ZM17.5125 9.04688V19H15.8035V9.04688H17.5125ZM19.3579 15.3838V15.2266C19.3579 14.6934 19.4354 14.1989 19.5903 13.7432C19.7453 13.2829 19.9686 12.8841 20.2602 12.5469C20.5565 12.2051 20.9165 11.9408 21.3403 11.7539C21.7687 11.5625 22.2518 11.4668 22.7895 11.4668C23.3319 11.4668 23.8149 11.5625 24.2388 11.7539C24.6671 11.9408 25.0294 12.2051 25.3257 12.5469C25.6219 12.8841 25.8475 13.2829 26.0024 13.7432C26.1574 14.1989 26.2348 14.6934 26.2348 15.2266V15.3838C26.2348 15.917 26.1574 16.4115 26.0024 16.8672C25.8475 17.3229 25.6219 17.7217 25.3257 18.0635C25.0294 18.4007 24.6694 18.665 24.2456 18.8564C23.8218 19.0433 23.341 19.1367 22.8032 19.1367C22.2609 19.1367 21.7755 19.0433 21.3471 18.8564C20.9233 18.665 20.5633 18.4007 20.2671 18.0635C19.9708 17.7217 19.7453 17.3229 19.5903 16.8672C19.4354 16.4115 19.3579 15.917 19.3579 15.3838ZM21.0054 15.2266V15.3838C21.0054 15.7165 21.0395 16.0309 21.1079 16.3271C21.1763 16.6234 21.2833 16.8831 21.4292 17.1064C21.575 17.3298 21.7619 17.5052 21.9897 17.6328C22.2176 17.7604 22.4888 17.8242 22.8032 17.8242C23.1085 17.8242 23.3729 17.7604 23.5962 17.6328C23.824 17.5052 24.0109 17.3298 24.1567 17.1064C24.3026 16.8831 24.4096 16.6234 24.478 16.3271C24.5509 16.0309 24.5874 15.7165 24.5874 15.3838V15.2266C24.5874 14.8984 24.5509 14.5885 24.478 14.2969C24.4096 14.0007 24.3003 13.7386 24.1499 13.5107C24.0041 13.2829 23.8172 13.1051 23.5893 12.9775C23.366 12.8454 23.0994 12.7793 22.7895 12.7793C22.4796 12.7793 22.2108 12.8454 21.9829 12.9775C21.7596 13.1051 21.575 13.2829 21.4292 13.5107C21.2833 13.7386 21.1763 14.0007 21.1079 14.2969C21.0395 14.5885 21.0054 14.8984 21.0054 15.2266ZM32.0656 17.5166V13.9893C32.0656 13.7249 32.0178 13.4971 31.9221 13.3057C31.8264 13.1143 31.6805 12.9661 31.4846 12.8613C31.2932 12.7565 31.0516 12.7041 30.76 12.7041C30.4911 12.7041 30.2587 12.7497 30.0627 12.8408C29.8667 12.932 29.7141 13.055 29.6047 13.21C29.4953 13.3649 29.4406 13.5404 29.4406 13.7363H27.8C27.8 13.4447 27.8706 13.1621 28.0119 12.8887C28.1532 12.6152 28.3583 12.3714 28.6271 12.1572C28.896 11.943 29.2173 11.7744 29.591 11.6514C29.9647 11.5283 30.384 11.4668 30.8488 11.4668C31.4048 11.4668 31.897 11.5602 32.3254 11.7471C32.7583 11.9339 33.0979 12.2165 33.3439 12.5947C33.5946 12.9684 33.7199 13.4378 33.7199 14.0029V17.291C33.7199 17.6283 33.7427 17.9313 33.7883 18.2002C33.8384 18.4645 33.9091 18.6947 34.0002 18.8906V19H32.3117C32.2342 18.8223 32.1727 18.5967 32.1271 18.3232C32.0861 18.0452 32.0656 17.7764 32.0656 17.5166ZM32.3049 14.502L32.3186 15.5205H31.1359C30.8306 15.5205 30.5617 15.5501 30.3293 15.6094C30.0969 15.6641 29.9032 15.7461 29.7482 15.8555C29.5933 15.9648 29.4771 16.097 29.3996 16.252C29.3221 16.4069 29.2834 16.5824 29.2834 16.7783C29.2834 16.9743 29.329 17.1543 29.4201 17.3184C29.5113 17.4779 29.6434 17.6032 29.8166 17.6943C29.9943 17.7855 30.2085 17.8311 30.4592 17.8311C30.7964 17.8311 31.0904 17.7627 31.341 17.626C31.5962 17.4847 31.7967 17.3138 31.9426 17.1133C32.0884 16.9082 32.1659 16.7145 32.175 16.5322L32.7082 17.2637C32.6535 17.4505 32.5601 17.651 32.4279 17.8652C32.2958 18.0794 32.1226 18.2845 31.9084 18.4805C31.6988 18.6719 31.4458 18.8291 31.1496 18.9521C30.8579 19.0752 30.5207 19.1367 30.1379 19.1367C29.6548 19.1367 29.2242 19.041 28.8459 18.8496C28.4676 18.6536 28.1714 18.3916 27.9572 18.0635C27.743 17.7308 27.6359 17.3548 27.6359 16.9355C27.6359 16.5436 27.7089 16.1973 27.8547 15.8965C28.0051 15.5911 28.2238 15.3359 28.5109 15.1309C28.8026 14.9258 29.1581 14.7708 29.5773 14.666C29.9966 14.5566 30.4751 14.502 31.0129 14.502H32.3049ZM30.4318 8.5L31.7648 10.5576H30.3908L28.5656 8.5H30.4318ZM37.3564 13.1826V19H35.7089V11.6035H37.2607L37.3564 13.1826ZM37.0624 15.0283L36.5292 15.0215C36.5338 14.4974 36.6067 14.0166 36.748 13.5791C36.8938 13.1416 37.0943 12.7656 37.3495 12.4512C37.6093 12.1367 37.9192 11.8952 38.2792 11.7266C38.6392 11.5534 39.0403 11.4668 39.4823 11.4668C39.8378 11.4668 40.1591 11.5169 40.4462 11.6172C40.7379 11.7129 40.9863 11.8701 41.1913 12.0889C41.401 12.3076 41.5605 12.5924 41.6698 12.9434C41.7792 13.2897 41.8339 13.7158 41.8339 14.2217V19H40.1796V14.2148C40.1796 13.8594 40.1272 13.5791 40.0224 13.374C39.9221 13.1644 39.774 13.0163 39.578 12.9297C39.3866 12.8385 39.1474 12.793 38.8603 12.793C38.5777 12.793 38.3248 12.8522 38.1015 12.9707C37.8782 13.0892 37.6891 13.251 37.5341 13.4561C37.3837 13.6611 37.2675 13.8981 37.1855 14.167C37.1034 14.4359 37.0624 14.723 37.0624 15.0283ZM50.9525 11.6035V12.8066H46.7826V11.6035H50.9525ZM47.9857 9.79199H49.6332V16.9561C49.6332 17.1839 49.6651 17.3594 49.7289 17.4824C49.7972 17.6009 49.8907 17.6807 50.0091 17.7217C50.1276 17.7627 50.2666 17.7832 50.4261 17.7832C50.5401 17.7832 50.6494 17.7764 50.7543 17.7627C50.8591 17.749 50.9434 17.7354 51.0072 17.7217L51.014 18.9795C50.8773 19.0205 50.7178 19.057 50.5355 19.0889C50.3578 19.1208 50.1527 19.1367 49.9203 19.1367C49.542 19.1367 49.2071 19.0706 48.9154 18.9385C48.6237 18.8018 48.3959 18.5807 48.2318 18.2754C48.0677 17.9701 47.9857 17.5645 47.9857 17.0586V9.79199ZM54.1309 8.5V19H52.4903V8.5H54.1309ZM53.8438 15.0283L53.3106 15.0215C53.3152 14.5111 53.3858 14.0394 53.5225 13.6064C53.6638 13.1735 53.8598 12.7975 54.1104 12.4785C54.3656 12.1549 54.671 11.9066 55.0264 11.7334C55.3819 11.5557 55.7761 11.4668 56.2091 11.4668C56.5736 11.4668 56.9018 11.5169 57.1934 11.6172C57.4897 11.7174 57.7449 11.8792 57.9591 12.1025C58.1733 12.3213 58.335 12.6084 58.4444 12.9639C58.5583 13.3148 58.6153 13.7432 58.6153 14.249V19H56.961V14.2354C56.961 13.8799 56.9086 13.5973 56.8038 13.3877C56.7035 13.1781 56.5554 13.0277 56.3595 12.9365C56.1635 12.8408 55.9242 12.793 55.6417 12.793C55.3455 12.793 55.0834 12.8522 54.8555 12.9707C54.6322 13.0892 54.4454 13.251 54.295 13.4561C54.1446 13.6611 54.0307 13.8981 53.9532 14.167C53.8803 14.4359 53.8438 14.723 53.8438 15.0283ZM64.7332 17.5166V13.9893C64.7332 13.7249 64.6854 13.4971 64.5896 13.3057C64.4939 13.1143 64.3481 12.9661 64.1521 12.8613C63.9607 12.7565 63.7192 12.7041 63.4275 12.7041C63.1587 12.7041 62.9262 12.7497 62.7303 12.8408C62.5343 12.932 62.3816 13.055 62.2723 13.21C62.1629 13.3649 62.1082 13.5404 62.1082 13.7363H60.4676C60.4676 13.4447 60.5382 13.1621 60.6795 12.8887C60.8208 12.6152 61.0258 12.3714 61.2947 12.1572C61.5636 11.943 61.8849 11.7744 62.2586 11.6514C62.6323 11.5283 63.0516 11.4668 63.5164 11.4668C64.0724 11.4668 64.5646 11.5602 64.993 11.7471C65.4259 11.9339 65.7654 12.2165 66.0115 12.5947C66.2622 12.9684 66.3875 13.4378 66.3875 14.0029V17.291C66.3875 17.6283 66.4103 17.9313 66.4559 18.2002C66.506 18.4645 66.5766 18.6947 66.6678 18.8906V19H64.9793C64.9018 18.8223 64.8403 18.5967 64.7947 18.3232C64.7537 18.0452 64.7332 17.7764 64.7332 17.5166ZM64.9725 14.502L64.9861 15.5205H63.8035C63.4982 15.5205 63.2293 15.5501 62.9969 15.6094C62.7645 15.6641 62.5708 15.7461 62.4158 15.8555C62.2609 15.9648 62.1447 16.097 62.0672 16.252C61.9897 16.4069 61.951 16.5824 61.951 16.7783C61.951 16.9743 61.9966 17.1543 62.0877 17.3184C62.1788 17.4779 62.311 17.6032 62.4842 17.6943C62.6619 17.7855 62.8761 17.8311 63.1268 17.8311C63.464 17.8311 63.7579 17.7627 64.0086 17.626C64.2638 17.4847 64.4643 17.3138 64.6102 17.1133C64.756 16.9082 64.8335 16.7145 64.8426 16.5322L65.3758 17.2637C65.3211 17.4505 65.2277 17.651 65.0955 17.8652C64.9633 18.0794 64.7902 18.2845 64.576 18.4805C64.3663 18.6719 64.1134 18.8291 63.8172 18.9521C63.5255 19.0752 63.1883 19.1367 62.8055 19.1367C62.3224 19.1367 61.8917 19.041 61.5135 18.8496C61.1352 18.6536 60.839 18.3916 60.6248 18.0635C60.4106 17.7308 60.3035 17.3548 60.3035 16.9355C60.3035 16.5436 60.3764 16.1973 60.5223 15.8965C60.6727 15.5911 60.8914 15.3359 61.1785 15.1309C61.4702 14.9258 61.8257 14.7708 62.2449 14.666C62.6642 14.5566 63.1427 14.502 63.6805 14.502H64.9725ZM63.0994 8.5L64.4324 10.5576H63.0584L61.2332 8.5H63.0994ZM70.0239 13.1826V19H68.3765V11.6035H69.9282L70.0239 13.1826ZM69.73 15.0283L69.1968 15.0215C69.2014 14.4974 69.2743 14.0166 69.4156 13.5791C69.5614 13.1416 69.7619 12.7656 70.0171 12.4512C70.2769 12.1367 70.5868 11.8952 70.9468 11.7266C71.3068 11.5534 71.7079 11.4668 72.1499 11.4668C72.5054 11.4668 72.8267 11.5169 73.1138 11.6172C73.4055 11.7129 73.6538 11.8701 73.8589 12.0889C74.0685 12.3076 74.2281 12.5924 74.3374 12.9434C74.4468 13.2897 74.5015 13.7158 74.5015 14.2217V19H72.8472V14.2148C72.8472 13.8594 72.7948 13.5791 72.69 13.374C72.5897 13.1644 72.4416 13.0163 72.2456 12.9297C72.0542 12.8385 71.815 12.793 71.5279 12.793C71.2453 12.793 70.9924 12.8522 70.7691 12.9707C70.5458 13.0892 70.3566 13.251 70.2017 13.4561C70.0513 13.6611 69.9351 13.8981 69.8531 14.167C69.771 14.4359 69.73 14.723 69.73 15.0283ZM78.0901 8.5V19H76.4494V8.5H78.0901ZM77.803 15.0283L77.2698 15.0215C77.2743 14.5111 77.345 14.0394 77.4817 13.6064C77.623 13.1735 77.8189 12.7975 78.0696 12.4785C78.3248 12.1549 78.6301 11.9066 78.9856 11.7334C79.341 11.5557 79.7353 11.4668 80.1682 11.4668C80.5328 11.4668 80.8609 11.5169 81.1526 11.6172C81.4488 11.7174 81.704 11.8792 81.9182 12.1025C82.1324 12.3213 82.2942 12.6084 82.4035 12.9639C82.5175 13.3148 82.5744 13.7432 82.5744 14.249V19H80.9202V14.2354C80.9202 13.8799 80.8677 13.5973 80.7629 13.3877C80.6627 13.1781 80.5146 13.0277 80.3186 12.9365C80.1226 12.8408 79.8834 12.793 79.6008 12.793C79.3046 12.793 79.0425 12.8522 78.8147 12.9707C78.5914 13.0892 78.4045 13.251 78.2541 13.4561C78.1037 13.6611 77.9898 13.8981 77.9123 14.167C77.8394 14.4359 77.803 14.723 77.803 15.0283Z" fill="#17BF28"/>
</svg>
