<svg width="136" height="137" viewBox="0 0 136 137" fill="none" xmlns="http://www.w3.org/2000/svg">
<path d="M133.997 58.1336C130.642 36.0325 116.886 8.87915 89.7084 6.03765C89.7084 6.03765 69.0743 3.51182 48.7331 7.34009C36.6605 9.6119 26.0747 16.3751 19.3765 26.0957C12.6783 35.8162 10.4406 47.6689 13.1564 58.9693C14.9199 66.3087 16.1118 73.905 15.7848 81.4467C15.2158 94.5725 15.5433 106.825 28.2008 114.652C39.5028 121.642 53.7267 127.807 67.296 128.886C76.518 129.62 86.8597 128.432 95.7477 126.016C141.043 113.703 137.352 80.2348 133.997 58.1336Z" fill="#F4F7FA"/>
<path d="M72.0729 105.343C68.2249 106.415 65.2285 101.953 67.6534 98.7601C68.4062 97.7688 69.1209 96.7005 69.7789 95.5487C74.6667 86.9969 72.1406 81.3825 76.5424 65.9014C79.3254 56.1127 81.366 49.3097 87.2437 46.9097C91.85 45.0286 98.2607 46.0765 101.38 49.7323C103.974 52.7716 104.596 57.9694 104.292 61.486C104.045 64.3524 103.169 66.2533 104.374 68.1086C105.605 70.0045 107.556 69.6163 108.78 71.1017C111.264 74.1137 107.616 81.0186 107.026 82.1346C100.469 94.548 86.07 100.339 79.7586 102.789C77.6321 103.614 75.0604 104.511 72.0729 105.343Z" fill="url(#paint0_linear_156_3013)"/>
<mask id="mask0_156_3013" style="mask-type:luminance" maskUnits="userSpaceOnUse" x="66" y="45" width="44" height="61">
<path d="M70.8342 105.677C67.3211 106.598 64.6621 102.445 66.9704 99.625C67.9746 98.3977 68.924 97.043 69.7781 95.5487C74.6659 86.9969 72.1398 81.3825 76.5416 65.9014C79.3246 56.1127 81.3652 49.3097 87.2429 46.9097C91.8492 45.0286 98.2599 46.0765 101.379 49.7323C103.973 52.7716 104.595 57.9694 104.291 61.486C104.044 64.3524 103.169 66.2533 104.373 68.1086C105.604 70.0045 107.555 69.6163 108.78 71.1017C111.263 74.1137 107.615 81.0186 107.025 82.1346C100.468 94.548 86.0692 100.339 79.7578 102.789C77.3438 103.726 74.3547 104.755 70.8342 105.677Z" fill="white"/>
</mask>
<g mask="url(#mask0_156_3013)">
<g opacity="0.5">
<path d="M52.1708 109.665L52.1338 109.331C58.3025 108.636 63.792 107.325 68.4501 105.434C75.3153 102.647 80.1621 98.6672 82.8567 93.6051C84.9675 89.6392 85.7233 85.1582 86.769 78.9552C87.6038 74.0035 87.7515 70.4178 87.8819 67.2542C88.0523 63.1162 88.1872 59.8482 89.7941 55.4696C91.4242 51.0269 94.0778 46.878 97.6813 43.1377L97.9213 43.3718C94.3504 47.0783 91.7215 51.1874 90.1077 55.5859C88.5196 59.9148 88.3858 63.1599 88.2163 67.2681C88.0854 70.4416 87.9372 74.0388 87.0985 79.0114C86.0873 85.0105 85.2881 89.7495 83.1516 93.7637C80.419 98.8974 75.5149 102.928 68.5751 105.746C63.8888 107.649 58.3697 108.967 52.1708 109.665Z" fill="white"/>
<path d="M87.514 75.5373L87.3654 75.4204C87.3367 75.3981 84.491 73.1352 82.1313 68.9818C79.9538 65.1486 77.7517 58.872 79.6273 50.7383L79.9528 50.8143C78.1019 58.8422 80.2734 65.0343 82.4217 68.8148C84.444 72.3746 86.8195 74.5192 87.4251 75.0342C92.3001 66.9526 98.3814 62.6655 102.638 60.4892C107.287 58.1125 110.832 57.669 110.868 57.6646L110.907 57.9986C110.873 58.0026 107.375 58.4425 102.776 60.7964C98.533 62.9678 92.4587 67.2593 87.6119 75.3742L87.514 75.5373Z" fill="white"/>
<path d="M84.8553 88.8442L84.8138 88.7294C84.7941 88.6747 82.8123 83.209 79.76 78.122C76.727 73.0673 67.5767 69.2142 67.4849 69.1759L67.6128 68.8647C67.7057 68.9035 76.9567 72.7984 80.0465 77.9475C82.8696 82.6527 84.7817 87.678 85.086 88.4987C95.8422 87.9822 112.478 67.2606 112.646 67.0508L112.906 67.2611C112.864 67.3143 108.623 72.617 103.096 77.8958C95.6579 85.0015 89.5619 88.6837 84.9768 88.8398L84.8553 88.8442Z" fill="white"/>
<path d="M76.8425 105.315C73.116 105.315 70.7336 105.002 70.6995 104.997L70.369 104.952L70.6022 104.713C74.2867 100.919 75.1097 96.1466 73.0478 90.5277C71.5047 86.3211 68.8362 83.2017 68.8096 83.1704L69.062 82.9497C69.0892 82.981 71.7971 86.1476 73.3615 90.4109C75.3976 95.9611 74.6063 100.895 71.0744 104.702C72.2846 104.834 76.7032 105.229 82.4807 104.741C88.7309 104.211 97.895 102.508 106.057 97.4003L121.918 87.4744L122.095 87.7603L106.234 97.6861C98.0131 102.831 88.7897 104.545 82.5004 105.077C80.4085 105.254 78.4934 105.315 76.8425 105.315Z" fill="white"/>
</g>
</g>
<path d="M64.2593 105.737C69.6026 108.887 76.856 112.133 85.1147 112.953C87.2225 113.162 100.242 114.455 101.735 109.014C102.261 107.098 100.912 105.964 101.571 103.389C102.351 100.339 104.744 99.9772 107.759 97.3604C109.558 95.799 114.822 91.229 113.231 86.0839C112.281 83.0092 108.925 79.868 105.584 78.8509C100.683 77.3585 96.7729 80.728 90.2554 86.5442C84.478 91.7003 84.1238 93.5833 79.8989 97.2227C76.7631 99.9235 71.8432 103.292 64.2593 105.737Z" fill="url(#paint1_linear_156_3013)"/>
<mask id="mask1_156_3013" style="mask-type:luminance" maskUnits="userSpaceOnUse" x="64" y="78" width="50" height="36">
<path d="M64.2593 105.737C69.6026 108.887 76.856 112.133 85.1147 112.953C87.2225 113.162 100.242 114.455 101.735 109.014C102.261 107.098 100.912 105.964 101.571 103.389C102.351 100.339 104.744 99.9772 107.759 97.3604C109.558 95.799 114.822 91.229 113.231 86.0839C112.281 83.0092 108.925 79.868 105.584 78.8509C100.683 77.3585 96.7729 80.728 90.2554 86.5442C84.478 91.7003 84.1238 93.5833 79.8989 97.2227C76.7631 99.9235 71.8432 103.292 64.2593 105.737Z" fill="white"/>
</mask>
<g mask="url(#mask1_156_3013)">
<g opacity="0.5">
<path d="M67.0057 105.809C63.6649 105.809 60.3909 105.336 57.1944 104.389C50.9976 102.553 45.3174 99.0778 40.3115 94.0604L40.5476 93.8218C45.5135 98.7989 51.1463 102.246 57.2893 104.066C65.4714 106.491 74.1835 105.777 83.1847 101.943C92.5622 97.9488 99.9031 91.5709 104.41 86.9233C107.527 83.7095 109.734 79.4279 110.97 74.1982L111.296 74.2763C110.045 79.5661 107.809 83.9004 104.649 87.1585C100.12 91.8284 92.7435 98.2376 83.3146 102.253C77.7525 104.622 72.2966 105.809 67.0057 105.809Z" fill="white"/>
<path d="M94.5381 95.7489L94.5144 95.5997C94.4971 95.4899 92.8606 84.5151 99.7875 77.4814L100.025 77.7186C93.6569 84.1845 94.6552 94.0641 94.8241 95.3974C110.416 94.5434 115.165 85.992 116.252 83.3847C116.283 83.3116 116.302 83.2663 116.312 83.2509L116.6 83.4219L116.456 83.3364L116.601 83.4185C116.594 83.4334 116.581 83.4657 116.56 83.5144C115.451 86.1765 110.596 94.9246 94.6878 95.7414L94.5381 95.7489Z" fill="white"/>
<path d="M98.8409 108.393C98.8221 108.393 98.8043 108.393 98.7856 108.393C95.2799 108.382 89.7479 107.292 83.3026 102.163L83.2324 102.108L83.2398 102.018C83.2467 101.934 83.9778 93.5214 89.817 84.898L95.6987 76.2114L95.9749 76.4008L90.0932 85.0874C84.6279 93.159 83.676 101.036 83.5817 101.956C87.1007 104.743 92.5734 108.038 98.787 108.057C98.8048 108.057 98.8226 108.057 98.8399 108.057C102.537 108.057 104.762 106.878 104.783 106.866L104.941 107.162C104.848 107.212 102.619 108.393 98.8409 108.393Z" fill="white"/>
</g>
</g>
<path d="M104.922 35.5461C105.489 35.8359 106.201 35.5699 106.512 34.952C106.824 34.3341 106.617 33.5989 106.05 33.309C106.021 33.2941 105.991 33.2812 105.961 33.2693C106.066 32.9273 106.145 32.5828 106.199 32.2383C106.231 32.2383 106.264 32.2378 106.297 32.2348C106.944 32.1766 107.457 31.5786 107.443 30.899C107.43 30.219 106.895 29.7149 106.248 29.7731C106.214 29.7761 106.181 29.7815 106.148 29.7875C106.08 29.4504 105.988 29.1214 105.871 28.8032C105.9 28.7858 105.93 28.7674 105.959 28.747C106.512 28.3568 106.689 27.5868 106.354 27.027C106.019 26.4673 105.299 26.3301 104.745 26.7198C104.717 26.7397 104.691 26.7616 104.664 26.7834C104.446 26.5403 104.206 26.3152 103.946 26.1093C103.964 26.079 103.982 26.0487 103.999 26.0169C104.31 25.399 104.717 24.7244 104.146 24.4435C102.824 23.7943 102.257 24.3501 101.946 24.968C101.929 24.9998 101.915 25.0326 101.902 25.0649C101.584 24.9754 101.262 24.9138 100.938 24.8795C100.94 24.8452 100.941 24.8109 100.941 24.7761C100.928 24.0965 101.128 23.7282 100.479 23.7157C99.0628 23.6879 98.5851 24.3063 98.5985 24.9864C98.5989 25.0217 98.6019 25.0565 98.6054 25.0913C98.2808 25.1842 97.9622 25.3035 97.652 25.4472C97.6372 25.4169 97.6219 25.3865 97.6046 25.3572C97.2697 24.7975 96.5495 24.6603 95.9957 25.05C95.4425 25.4402 95.2656 26.2103 95.6005 26.77C95.6178 26.7988 95.6366 26.8257 95.6554 26.852C95.4104 27.0986 95.1807 27.3665 94.9688 27.6539C94.9411 27.6365 94.9134 27.6196 94.8843 27.6047C94.3172 27.3148 93.6054 27.5808 93.2937 28.1987C92.982 28.8166 93.189 29.5519 93.7561 29.8417C93.7852 29.8566 93.8153 29.8695 93.8455 29.8814C93.7403 30.2235 93.6607 30.568 93.6074 30.9125C93.5748 30.9125 93.5422 30.913 93.5091 30.9159C92.8625 30.9741 92.3487 31.5721 92.3626 32.2517C92.3759 32.9317 92.9114 33.4353 93.558 33.3776C93.5916 33.3747 93.6252 33.3692 93.6578 33.3632C93.7254 33.7003 93.8178 34.0294 93.9349 34.3475C93.9052 34.3649 93.8756 34.3833 93.8465 34.4037C93.2932 34.7939 93.1164 35.5639 93.4513 36.1237C93.7862 36.6834 94.8957 36.9434 95.4494 36.5532C95.4776 36.5333 95.115 36.3892 95.1417 36.3673C95.36 36.6104 95.6001 36.8356 95.8594 37.0414C95.8411 37.0717 95.8233 37.102 95.807 37.1338C95.4953 37.7517 95.7023 38.487 96.2694 38.7768C96.8365 39.0666 97.5483 38.8007 97.86 38.1827C97.8763 38.1509 97.8901 38.1181 97.9034 38.0858C98.2216 38.1753 98.5436 38.2369 98.8677 38.2712C98.8657 38.3055 98.8642 38.3398 98.8647 38.3746C98.878 39.0542 99.4135 39.5583 100.06 39.5006C100.707 39.4424 101.22 38.8444 101.207 38.1648C101.206 38.1295 101.203 38.0948 101.199 38.06C101.524 37.967 101.842 37.8477 102.153 37.704C102.167 37.7343 102.183 37.7647 102.2 37.7935C102.535 38.3532 103.255 38.4905 103.809 38.1007C104.362 37.7105 104.539 36.9405 104.204 36.3807C104.187 36.3519 104.168 36.325 104.149 36.2987C104.394 36.0521 104.623 35.7842 104.835 35.4968C104.864 35.5137 104.893 35.5306 104.922 35.5461ZM97.855 35.636C95.7967 34.5841 95.0453 31.9136 96.177 29.6707C97.3087 27.4277 99.8946 26.4623 101.953 27.5137C104.011 28.5656 104.762 31.2361 103.631 33.4791C102.499 35.722 99.9134 36.6879 97.855 35.636Z" fill="url(#paint2_linear_156_3013)"/>
<path d="M106.297 32.2351C106.944 32.1769 107.457 31.5789 107.444 30.8993C107.43 30.2198 106.895 29.7152 106.248 29.7734C106.215 29.7764 106.181 29.7818 106.148 29.7878C106.08 29.4507 105.988 29.1217 105.871 28.8035C105.9 28.7861 105.93 28.7677 105.959 28.7473C106.512 28.3571 107.197 27.4146 106.807 26.8921C106.066 25.9009 105.299 26.3299 104.745 26.7201C104.717 26.74 104.691 26.7619 104.664 26.7837C104.445 26.5406 104.206 26.3154 103.946 26.1096C103.965 26.0793 103.982 26.049 103.999 26.0172C104.168 25.6811 104.183 25.3103 104.071 24.9951C103.537 25.9416 103.01 26.8926 102.491 27.8481C104.133 29.059 104.656 31.4452 103.63 33.4798C102.76 35.2038 101.031 36.1717 99.3434 36.0504C99.2683 36.2468 99.1942 36.4446 99.1137 36.639C98.8949 37.1674 98.6464 37.6844 98.3975 38.2014C98.554 38.2313 98.7111 38.2546 98.8687 38.271C98.8667 38.3053 98.8652 38.3396 98.8657 38.3744C98.8791 39.054 99.2896 39.6316 100.462 39.569C101.11 39.5342 101.221 38.8437 101.208 38.1641C101.208 38.1288 101.205 38.0941 101.201 38.0593C101.526 37.9663 101.844 37.847 102.155 37.7033C102.169 37.7336 102.185 37.764 102.202 37.7928C102.537 38.3526 103.7 38.5902 104.253 38.2004C104.806 37.8102 104.541 36.9398 104.206 36.38C104.189 36.3512 104.17 36.3243 104.151 36.298C104.396 36.0514 104.626 35.7835 104.838 35.4961C104.866 35.5135 104.893 35.5304 104.922 35.5454C105.489 35.8352 106.201 35.5692 106.513 34.9513C106.825 34.3334 106.618 33.5982 106.051 33.3083C106.021 33.2934 105.991 33.2805 105.961 33.2686C106.066 32.9266 106.146 32.5821 106.199 32.2376C106.231 32.2386 106.264 32.2381 106.297 32.2351Z" fill="url(#paint3_linear_156_3013)"/>
<path d="M105.532 35.6162C106.099 35.9061 106.811 35.6401 107.122 35.0222C107.434 34.4043 107.227 33.669 106.66 33.3792C106.631 33.3643 106.601 33.3514 106.57 33.3395C106.676 32.9974 106.755 32.6529 106.809 32.3084C106.841 32.3084 106.874 32.3079 106.907 32.305C107.553 32.2468 108.067 31.6488 108.053 30.9692C108.04 30.2892 107.505 29.7851 106.858 29.8433C106.824 29.8462 106.791 29.8517 106.758 29.8577C106.69 29.5206 106.598 29.1915 106.481 28.8734C106.51 28.856 106.54 28.8376 106.569 28.8172C107.122 28.427 107.299 27.657 106.964 27.0972C106.629 26.5375 105.909 26.4003 105.355 26.79C105.327 26.8099 105.3 26.8317 105.274 26.8536C105.055 26.6105 104.815 26.3853 104.556 26.1795C104.574 26.1492 104.592 26.1189 104.608 26.0871C104.92 25.4692 104.713 24.7339 104.146 24.4441C103.579 24.1543 102.867 24.4202 102.555 25.0382C102.539 25.07 102.525 25.1028 102.512 25.1351C102.194 25.0456 101.872 24.984 101.548 24.9497C101.55 24.9154 101.551 24.8811 101.551 24.8463C101.537 24.1667 101.002 23.6626 100.355 23.7203C99.7087 23.7785 99.195 24.3765 99.2088 25.0561C99.2093 25.0914 99.2123 25.1262 99.2157 25.1609C98.8912 25.2539 98.5726 25.3732 98.2624 25.5169C98.2475 25.4866 98.2322 25.4562 98.2149 25.4269C97.88 24.8672 97.1593 24.73 96.6061 25.1197C96.0528 25.5099 95.876 26.2799 96.2109 26.8397C96.2282 26.8685 96.247 26.8954 96.2657 26.9217C96.0207 27.1683 95.791 27.4362 95.5791 27.7236C95.5519 27.7062 95.5238 27.6893 95.4946 27.6744C94.9276 27.3845 94.2158 27.6505 93.9041 28.2684C93.5924 28.8863 93.7993 29.6215 94.3664 29.9114C94.3956 29.9263 94.4257 29.9392 94.4558 29.9511C94.3506 30.2931 94.2711 30.6376 94.2177 30.9821C94.1851 30.9821 94.1525 30.9826 94.1194 30.9856C93.4728 31.0438 92.9591 31.6418 92.9729 32.3214C92.9863 33.0014 93.5217 33.505 94.1683 33.4473C94.2019 33.4443 94.2355 33.4389 94.2681 33.4329C94.3358 33.77 94.4282 34.099 94.5452 34.4172C94.5156 34.4346 94.486 34.453 94.4568 34.4734C93.9036 34.8636 93.7267 35.6336 94.0616 36.1934C94.3965 36.7531 95.1173 36.8903 95.6705 36.5006C95.6987 36.4807 95.7253 36.4588 95.752 36.437C95.9703 36.6801 96.2104 36.9052 96.4697 37.1111C96.4515 37.1414 96.4337 37.1717 96.4174 37.2035C96.1057 37.8214 96.3127 38.5567 96.8797 38.8465C97.4468 39.1363 98.1586 38.8703 98.4703 38.2524C98.4866 38.2206 98.5004 38.1878 98.5138 38.1555C98.8319 38.245 99.154 38.3066 99.478 38.3409C99.476 38.3752 99.4746 38.4095 99.4751 38.4443C99.4884 39.1239 100.024 39.6279 100.67 39.5703C101.317 39.5121 101.831 38.9141 101.817 38.2345C101.816 38.1992 101.814 38.1644 101.81 38.1296C102.135 38.0367 102.453 37.9174 102.763 37.7737C102.778 37.804 102.794 37.8344 102.811 37.8632C103.146 38.4229 103.866 38.5606 104.42 38.1704C104.973 37.7802 105.15 37.0101 104.815 36.4504C104.798 36.4216 104.779 36.3947 104.76 36.3684C105.005 36.1218 105.234 35.8539 105.446 35.5665C105.475 35.5844 105.502 35.6013 105.532 35.6162ZM98.4649 35.7062C96.4065 34.6543 95.6552 31.9838 96.7869 29.7409C97.9186 27.4979 100.504 26.5325 102.562 27.5839C104.621 28.6358 105.372 31.3063 104.24 33.5492C103.109 35.7927 100.523 36.7581 98.4649 35.7062Z" fill="url(#paint4_linear_156_3013)"/>
<path d="M89.757 23.89C90.8674 24.4572 92.2624 23.9363 92.8729 22.7263C93.4835 21.5163 93.0779 20.0752 91.9675 19.508C91.9102 19.4787 91.8514 19.4538 91.7921 19.4304C91.9986 18.7608 92.1542 18.0862 92.2584 17.4112C92.3222 17.4112 92.3859 17.4097 92.4511 17.4042C93.7181 17.2904 94.7233 16.1192 94.6972 14.7874C94.6705 13.4556 93.6223 12.4684 92.3553 12.5817C92.2891 12.5877 92.2239 12.5981 92.1592 12.6095C92.0268 11.9494 91.8455 11.3051 91.6168 10.6812C91.6751 10.6469 91.7328 10.6116 91.7897 10.5714C92.8734 9.80731 93.2202 8.29857 92.5637 7.20244C91.9072 6.10581 90.4964 5.83687 89.4122 6.60093C89.3569 6.6402 89.3045 6.68246 89.2526 6.72521C88.8244 6.24898 88.3551 5.80754 87.8468 5.40488C87.8824 5.34572 87.9174 5.28607 87.949 5.22343C88.5596 4.01346 89.3574 2.69163 88.238 2.14183C85.6491 0.869715 84.5382 1.95889 83.9276 3.16886C83.896 3.2315 83.8688 3.29513 83.8427 3.35876C83.2198 3.18378 82.5885 3.06248 81.9537 2.99587C81.9577 2.92876 81.9606 2.86115 81.9597 2.79305C81.933 1.46128 82.3257 0.740962 81.0542 0.716107C78.2811 0.661921 77.3455 1.87339 77.3717 3.20466C77.3731 3.27425 77.3786 3.34236 77.3855 3.40996C76.7498 3.5924 76.1259 3.82555 75.5183 4.10741C75.4896 4.04826 75.4595 3.9891 75.4249 3.93144C74.7684 2.8348 73.3577 2.56587 72.2734 3.32993C71.1896 4.09399 70.8429 5.60273 71.4993 6.69886C71.5329 6.75504 71.57 6.80773 71.607 6.85943C71.1269 7.34263 70.6774 7.86708 70.262 8.42981C70.2081 8.39601 70.1538 8.3627 70.096 8.33337C68.9855 7.76617 67.5906 8.28714 66.98 9.49711C66.3695 10.7071 66.775 12.1482 67.8855 12.7154C67.9428 12.7448 68.0015 12.7696 68.0608 12.793C67.8543 13.4626 67.6987 14.1372 67.5945 14.8122C67.5308 14.8122 67.4671 14.8137 67.4024 14.8192C66.1353 14.933 65.1296 16.1047 65.1563 17.436C65.183 18.7678 66.2316 19.755 67.4982 19.6412C67.5644 19.6352 67.6296 19.6248 67.6943 19.6134C67.8267 20.2735 68.008 20.9178 68.2367 21.5417C68.1784 21.576 68.1206 21.6113 68.0638 21.6515C66.98 22.4156 66.6332 23.9243 67.2897 25.0205C67.9462 26.1171 70.1197 26.6261 71.2035 25.8621C71.2588 25.8228 70.5489 25.5404 70.6003 25.4977C71.0286 25.9739 71.4979 26.4154 72.0062 26.818C71.9706 26.8772 71.9355 26.9368 71.9039 26.9995C71.2934 28.2094 71.6989 29.6506 72.8094 30.2178C73.9198 30.785 75.3148 30.264 75.9253 29.054C75.9569 28.9914 75.9841 28.9278 76.0103 28.8641C76.6332 29.0391 77.2645 29.1604 77.8992 29.227C77.8953 29.2942 77.8923 29.3618 77.8933 29.4299C77.92 30.7616 78.9687 31.7489 80.2352 31.6351C81.5022 31.5212 82.508 30.3495 82.4813 29.0183C82.4798 28.9487 82.4739 28.8806 82.4675 28.8129C83.1032 28.6305 83.7271 28.3974 84.3347 28.1155C84.3633 28.1747 84.3934 28.2338 84.428 28.291C85.0845 29.3876 86.4953 29.6565 87.5796 28.8925C88.6633 28.1284 89.0101 26.6197 88.3536 25.5235C88.32 25.4674 88.283 25.4147 88.2459 25.363C88.7261 24.8798 89.1756 24.3553 89.591 23.7926C89.6448 23.8274 89.6992 23.8607 89.757 23.89ZM75.9135 24.0665C71.8817 22.0065 70.4101 16.7749 72.6266 12.3814C74.843 7.98788 79.9087 6.09636 83.9405 8.1564C87.9723 10.2164 89.4438 15.4481 87.2274 19.8415C85.0109 24.235 79.9457 26.127 75.9135 24.0665Z" fill="url(#paint5_linear_156_3013)"/>
<path d="M92.4512 17.4033C93.7182 17.2895 94.7234 16.1178 94.6972 14.7865C94.6706 13.4548 93.6224 12.4675 92.3553 12.5813C92.2891 12.5873 92.2239 12.5977 92.1592 12.6092C92.0268 11.949 91.8456 11.3048 91.6168 10.6809C91.6751 10.6466 91.7329 10.6113 91.7897 10.571C92.8735 9.80696 94.2146 7.96018 93.45 6.93712C91.9987 4.99589 90.4965 5.83602 89.4123 6.60008C89.3569 6.63935 89.3046 6.68161 89.2527 6.72436C88.8244 6.24812 88.3552 5.80669 87.8469 5.40402C87.8824 5.34487 87.9175 5.28521 87.9491 5.22258C88.2816 4.5639 88.3107 3.83812 88.0914 3.2207C87.0447 5.07494 86.0118 6.93762 84.9972 8.80975C88.2139 11.182 89.2379 15.8563 87.2274 19.8412C85.5237 23.2181 82.1371 25.1146 78.8299 24.8769C78.6822 25.2617 78.5375 25.649 78.3794 26.0302C77.9507 27.0647 77.4636 28.0784 76.9761 29.0905C77.2828 29.1486 77.5906 29.1944 77.8998 29.2272C77.8958 29.2943 77.8929 29.3619 77.8939 29.43C77.9205 30.7618 78.7237 31.8932 81.0202 31.7704C82.2902 31.7028 82.5085 30.3502 82.4824 29.0184C82.4809 28.9488 82.4754 28.8807 82.4685 28.8131C83.1043 28.6306 83.7281 28.3975 84.3357 28.1156C84.3644 28.1753 84.3945 28.2339 84.4291 28.2911C85.0856 29.3877 87.3628 29.8535 88.447 29.089C89.5308 28.3249 89.0112 26.6198 88.3547 25.5232C88.3211 25.467 88.284 25.4143 88.247 25.3626C88.7271 24.8794 89.1766 24.355 89.5921 23.7922C89.6459 23.826 89.7002 23.8594 89.758 23.8887C90.8685 24.4564 92.2635 23.9349 92.874 22.7249C93.4846 21.515 93.079 20.0738 91.9686 19.5066C91.9113 19.4773 91.8525 19.4524 91.7932 19.4291C91.9997 18.7595 92.1553 18.0849 92.2595 17.4098C92.3227 17.4103 92.3865 17.4088 92.4512 17.4033Z" fill="url(#paint6_linear_156_3013)"/>
<path d="M90.9513 24.0265C92.0618 24.5937 93.4567 24.0727 94.0673 22.8627C94.6778 21.6527 94.2723 20.2116 93.1618 19.6444C93.1045 19.6151 93.0457 19.5902 92.9865 19.5668C93.1929 18.8972 93.3485 18.2227 93.4528 17.5476C93.5165 17.5476 93.5802 17.5461 93.6454 17.5406C94.9125 17.4268 95.9177 16.2556 95.8915 14.9238C95.8648 13.592 94.8166 12.6048 93.5496 12.7181C93.4834 12.7241 93.4182 12.7345 93.3535 12.746C93.2211 12.0858 93.0398 11.4415 92.8111 10.8177C92.8694 10.7834 92.9272 10.7481 92.984 10.7078C94.0678 9.94373 94.4145 8.43499 93.7581 7.33886C93.1016 6.24222 91.6908 5.97329 90.6065 6.73735C90.5512 6.77662 90.4988 6.81888 90.447 6.86163C90.0187 6.38539 89.5494 5.94396 89.0411 5.54129C89.0767 5.48214 89.1118 5.42248 89.1434 5.35985C89.7539 4.14987 89.3484 2.70874 88.2379 2.14154C87.1275 1.57433 85.7325 2.0953 85.122 3.30528C85.0904 3.36791 85.0632 3.43155 85.037 3.49518C84.4141 3.32019 83.7828 3.1989 83.1481 3.13228C83.152 3.06517 83.155 2.99757 83.154 2.92946C83.1273 1.59769 82.0786 0.610428 80.8121 0.724266C79.545 0.838105 78.5393 2.0098 78.566 3.34107C78.5675 3.41067 78.5734 3.47877 78.5798 3.54638C77.9441 3.72882 77.3202 3.96197 76.7126 4.24383C76.684 4.18467 76.6538 4.12552 76.6198 4.06785C75.9633 2.97122 74.5525 2.70228 73.4682 3.46634C72.3845 4.2309 72.0377 5.73915 72.6942 6.83528C72.7278 6.89145 72.7648 6.94415 72.8019 6.99585C72.3217 7.47904 71.8722 8.0035 71.4568 8.56623C71.4029 8.53242 71.3486 8.49912 71.2908 8.46979C70.1804 7.90258 68.7854 8.42356 68.1749 9.63353C67.5643 10.8435 67.9699 12.2846 69.0803 12.8518C69.1376 12.8812 69.1964 12.906 69.2557 12.9294C69.0492 13.599 68.8936 14.2736 68.7893 14.9487C68.7256 14.9487 68.6619 14.9502 68.5967 14.9556C67.3297 15.0695 66.3239 16.2412 66.3506 17.5724C66.3773 18.9042 67.426 19.8915 68.6925 19.7776C68.7587 19.7717 68.8239 19.7612 68.8886 19.7498C69.021 20.41 69.2023 21.0542 69.431 21.6781C69.3727 21.7124 69.3149 21.7477 69.2581 21.788C68.1744 22.552 67.8276 24.0608 68.4841 25.1569C69.1406 26.2535 70.5513 26.5225 71.6351 25.7584C71.6904 25.7191 71.7428 25.6769 71.7947 25.6341C72.2229 26.1103 72.6922 26.5518 73.2005 26.9544C73.1649 27.0136 73.1299 27.0733 73.0983 27.1359C72.4877 28.3459 72.8933 29.787 74.0037 30.3542C75.1141 30.9214 76.5091 30.4004 77.1197 29.1905C77.1513 29.1278 77.1784 29.0642 77.2046 29.0006C77.8275 29.1756 78.4588 29.2968 79.0936 29.3635C79.0896 29.4306 79.0866 29.4982 79.0876 29.5663C79.1143 30.898 80.1625 31.8853 81.4295 31.7715C82.6966 31.6576 83.7023 30.4859 83.6756 29.1547C83.6741 29.0851 83.6682 29.017 83.6618 28.9494C84.2975 28.7669 84.9214 28.5338 85.529 28.2519C85.5577 28.3111 85.5878 28.3702 85.6224 28.4274C86.2788 29.524 87.6896 29.793 88.7734 29.0289C89.8572 28.2648 90.2039 26.7561 89.5475 25.66C89.5139 25.6038 89.4768 25.5511 89.4398 25.4994C89.9199 25.0162 90.3694 24.4917 90.7848 23.929C90.8392 23.9638 90.8935 23.9971 90.9513 24.0265ZM77.1078 24.2029C73.076 22.1429 71.604 16.9113 73.8209 12.5178C76.0374 8.1243 81.103 6.23278 85.1348 8.29282C89.1666 10.3529 90.6381 15.5845 88.4217 19.978C86.2052 24.3714 81.1401 26.263 77.1078 24.2029Z" fill="url(#paint7_linear_156_3013)"/>
<path d="M134.804 120.666L3.22217 119.521V122.908C3.22217 123.827 3.79616 124.609 4.57318 124.749L41.7805 131.418C42.2221 131.497 42.6696 131.518 43.1152 131.481L133.374 123.877C134.18 123.809 134.804 123.025 134.804 122.08V120.666Z" fill="#BFC8D6"/>
<path d="M88.6202 55.8578V112.514C88.6202 113.229 88.3614 113.895 87.9479 114.39C87.5463 114.875 86.9931 115.194 86.383 115.24L25.9211 119.728L3.37826 121.407H3.3748L3.22217 121.41L2.73215 121.44C1.23542 121.55 0 120.367 0 118.803V56.1287C0 54.5643 1.25419 53.2559 2.75092 53.2559H86.381C87.615 53.2564 88.6202 54.4435 88.6202 55.8578Z" fill="#BFC8D6"/>
<path d="M89.9581 55.8578V112.514C89.9581 113.605 89.3559 114.581 88.5167 115.01C88.5043 115.016 88.489 115.022 88.4767 115.029C88.3967 115.068 88.3142 115.104 88.2302 115.133C88.2114 115.139 88.1921 115.146 88.1734 115.153C88.1581 115.156 88.1423 115.161 88.1289 115.165C88.0677 115.184 88.0064 115.197 87.9437 115.209C87.8691 115.225 87.793 115.234 87.715 115.24L87.2911 115.268L27.1147 119.724H27.1113L4.08338 121.432C3.86158 121.449 3.64424 121.447 3.43776 121.409C3.4175 121.405 3.39873 121.407 3.37848 121.407H3.37502C3.32414 121.407 3.25647 121.376 3.20559 121.36C2.13121 121.065 1.33789 120.053 1.33789 118.803V56.1287C1.33789 54.5643 2.58862 53.2559 4.08535 53.2559H87.7155C88.9489 53.2564 89.9581 54.4435 89.9581 55.8578Z" fill="white"/>
<path d="M85.11 111.245L7.21634 116.626C5.9987 116.71 5.00879 115.744 5.00879 114.466V59.5956C5.00879 58.3185 5.9987 57.2791 7.21634 57.2736L85.11 56.9356C86.1271 56.9311 86.9495 57.8706 86.9495 59.0339V109.012C86.9495 110.174 86.1271 111.175 85.11 111.245Z" fill="#D8DEE8"/>
<path d="M48.8532 55.0114C48.8532 55.5935 48.423 56.0673 47.8915 56.0688C47.3595 56.0702 46.9272 55.5985 46.9272 55.0149C46.9272 54.4313 47.359 53.9575 47.8915 53.9575C48.423 53.957 48.8532 54.4288 48.8532 55.0114Z" fill="white"/>
<path opacity="0.48" d="M4.08398 121.435L87.2917 115.27L87.7151 115.239C88.2807 115.197 88.7954 114.916 89.1881 114.489C83.2002 114.159 79.4811 112.021 77.0824 109.811C72.2647 105.374 73.1 100.998 67.9049 98.0803C61.4245 94.4414 56.3292 99.0522 51.4117 94.5031C48.4306 91.7451 49.8943 89.688 46.226 85.5665C42.1631 81.0015 39.5179 82.5361 35.4348 78.4269C30.2718 73.2316 32.8543 69.1896 28.4066 65.4597C23.0114 60.9345 17.193 65.1227 12.0571 60.7834C9.84219 58.9118 8.62652 56.1906 7.99177 53.2969H4.08447C2.58774 53.2969 1.37109 54.565 1.37109 56.1294V118.803C1.3706 120.367 2.58725 121.546 4.08398 121.435Z" fill="white"/>
<path d="M91.6556 114.895L3.22217 121.416L41.781 128.328C42.2226 128.407 42.6701 128.428 43.1157 128.39L134.804 120.666L93.062 114.939C92.5957 114.875 92.1244 114.86 91.6556 114.895Z" fill="url(#paint8_linear_156_3013)"/>
<path d="M16.126 121.473L89.7492 115.963L112.535 119.064L39.5456 124.954L16.126 121.473Z" fill="#D8DEE8"/>
<path opacity="0.3" d="M83.2695 53.2563V109.829C83.2695 110.351 83.1657 110.861 83.0146 111.344C82.8027 112.028 82.4391 112.657 81.9812 113.198C81.1 114.239 79.823 114.947 78.3989 115.056L17.8456 119.655L14.2747 119.926C13.4137 119.993 12.5977 119.874 11.8671 119.604C10.3995 119.067 9.30685 117.925 8.87167 116.469C8.73928 116.034 8.69482 115.571 8.69482 115.087V53.2563H83.2695Z" fill="#BFC8D6"/>
<path d="M79.7568 18.8127L15.6143 16.8238C12.5062 16.7273 9.97119 19.0071 9.97119 21.9167V113.893C9.97119 116.802 12.5058 118.968 15.6143 118.732L79.7568 113.862C82.444 113.658 84.6101 111.319 84.6101 108.636V23.8206C84.6101 21.1382 82.4435 18.8962 79.7568 18.8127Z" fill="url(#paint9_linear_156_3013)"/>
<path opacity="0.74" d="M11.7803 114.313V21.4155C11.7803 19.7412 13.238 18.4268 15.0296 18.479L80.2643 20.3875C81.8139 20.4327 83.0661 21.7257 83.0661 23.2752V109.251C83.0661 110.801 81.8139 112.15 80.2643 112.265L15.0296 117.104C13.238 117.237 11.7803 115.987 11.7803 114.313Z" fill="white"/>
<path d="M79.7568 18.8127L15.6143 16.8238C12.5062 16.7273 9.97119 19.0071 9.97119 21.9167V25.6952L84.6101 27.3054V23.8211C84.6101 21.1382 82.4435 18.8962 79.7568 18.8127Z" fill="url(#paint10_linear_156_3013)"/>
<path d="M19.9913 21.6672C19.9913 22.6093 19.1762 23.3534 18.1685 23.3291C17.1589 23.3047 16.3389 22.5178 16.3389 21.5723C16.3389 20.6263 17.1589 19.8826 18.1685 19.9104C19.1757 19.9388 19.9913 20.7252 19.9913 21.6672Z" fill="white"/>
<path d="M26.3374 21.8325C26.3374 22.7686 25.5332 23.5078 24.5389 23.4835C23.5425 23.4591 22.7339 22.6781 22.7339 21.7386C22.7339 20.799 23.543 20.0598 24.5389 20.0877C25.5332 20.1155 26.3374 20.8965 26.3374 21.8325Z" fill="white"/>
<path d="M32.6 21.9949C32.6 22.9245 31.8062 23.6592 30.8257 23.6354C29.8427 23.6115 29.0444 22.8355 29.0444 21.9024C29.0444 20.9694 29.8427 20.2351 30.8257 20.2625C31.8062 20.2893 32.6 21.0653 32.6 21.9949Z" fill="white"/>
<path d="M46.4195 44.9044L20.0187 44.8622C19.5885 44.8617 19.2393 44.5391 19.2393 44.1419V42.4517C19.2393 42.0545 19.5885 41.7343 20.0187 41.7368L46.4195 41.886C46.8206 41.8885 47.1451 42.2001 47.1451 42.5834V44.213C47.1451 44.5952 46.8206 44.9054 46.4195 44.9044Z" fill="white"/>
<path d="M21.043 45.499L23.3128 53.8759C23.456 54.4053 23.9707 54.7722 24.56 54.7652L42.135 54.5664C42.6966 54.5599 43.1862 54.1915 43.322 53.6731L45.4624 45.5174L21.043 45.499ZM27.5579 53.3842C27.5579 53.7168 27.2685 53.9892 26.9113 53.9927L26.2944 53.9992C25.9362 54.0026 25.6458 53.7357 25.6458 53.4026V46.9103C25.6458 46.5773 25.9362 46.3068 26.2944 46.3068H26.9113C27.2685 46.3068 27.5579 46.5763 27.5579 46.9083V53.3842ZM30.9881 53.3519C30.9881 53.683 30.7011 53.9539 30.3474 53.9574L29.7359 53.9639C29.3812 53.9673 29.0932 53.7014 29.0932 53.3698V46.9064C29.0932 46.5748 29.3812 46.3058 29.7359 46.3053H30.3474C30.7016 46.3053 30.9881 46.5733 30.9881 46.9044V53.3519ZM34.3871 53.3191C34.3871 53.6487 34.103 53.9186 33.7518 53.9221L33.1457 53.9286C32.794 53.9321 32.5085 53.6676 32.5085 53.3375V46.9029C32.5085 46.5728 32.794 46.3048 33.1457 46.3048H33.7518C34.1025 46.3048 34.3871 46.5718 34.3871 46.9009V53.3191ZM37.7564 53.2873C37.7564 53.6154 37.4749 53.8838 37.1271 53.8873L36.5265 53.8933C36.1777 53.8968 35.8952 53.6333 35.8952 53.3047V46.8994C35.8952 46.5708 36.1782 46.3038 36.5265 46.3038H37.1271C37.4749 46.3038 37.7564 46.5693 37.7564 46.8974V53.2873ZM41.0957 53.255C41.0957 53.5816 40.8166 53.849 40.4718 53.8525L39.8766 53.8585C39.5313 53.862 39.2507 53.5995 39.2507 53.2724V46.8954C39.2507 46.5683 39.5313 46.3029 39.8766 46.3029H40.4718C40.8166 46.3029 41.0957 46.5673 41.0957 46.8939V53.255Z" fill="white"/>
<path d="M24.0085 40.9069C23.6073 41.2281 22.9983 41.1858 22.6481 40.811C22.2973 40.4362 22.3393 39.8714 22.7414 39.5503C23.1435 39.2297 23.7521 39.2739 24.1018 39.6482C24.451 40.0226 24.4091 40.5858 24.0085 40.9069Z" fill="#D8DEE8"/>
<path d="M32.4808 32.9476C32.3485 32.8029 32.0753 32.8188 31.8698 32.9824L23.5103 39.6631C23.3004 39.8306 23.2401 40.0847 23.3755 40.2293C23.5108 40.3745 23.7904 40.3556 24.0004 40.188L32.3494 33.5059C32.5539 33.3423 32.6127 33.0923 32.4808 32.9476Z" fill="white"/>
<path d="M42.6594 41.0324C43.0408 41.3506 43.6187 41.3168 43.9502 40.9568C44.2811 40.5974 44.2416 40.0481 43.8618 39.7295C43.4814 39.4108 42.9035 39.4431 42.571 39.803C42.2381 40.163 42.2781 40.7138 42.6594 41.0324Z" fill="#D8DEE8"/>
<path d="M34.4147 32.9809C34.5461 32.8412 34.8177 32.8665 35.0213 33.037L43.1332 39.8276C43.3323 39.9941 43.3896 40.2422 43.2612 40.3814C43.1327 40.5206 42.867 40.4987 42.6674 40.3317L34.5456 33.5421C34.3416 33.3716 34.2828 33.1201 34.4147 32.9809Z" fill="white"/>
<path d="M77.1607 36.9174L49.9365 36.5674V33.1572L77.1607 33.6325V36.9174Z" fill="white"/>
<path d="M77.1607 42.6689L49.9365 42.5381V39.1279L77.1607 39.3839V42.6689Z" fill="white"/>
<path d="M77.1607 48.4194L49.9365 48.5083V45.0981L77.1607 45.1344V48.4194Z" fill="white"/>
<path d="M77.1607 54.1712L49.9365 54.4789V51.0687L77.1607 50.8857V54.1712Z" fill="white"/>
<path d="M73.4577 83.2432C73.4577 97.0396 62.4111 108.967 48.7424 109.886C35.0269 110.809 23.874 100.306 23.874 86.4242C23.874 72.5428 35.0269 60.6086 48.7424 59.7715C62.4111 58.9374 73.4577 69.4468 73.4577 83.2432Z" fill="url(#paint11_linear_156_3013)"/>
<path d="M50.2604 60.9028C56.2305 60.9028 61.7813 63.187 65.8901 67.3349C70.0153 71.4997 72.2875 77.1494 72.2875 83.243C72.2875 89.6185 69.831 95.7787 65.3705 100.59C60.9084 105.402 54.9754 108.286 48.6649 108.711C48.1344 108.746 47.5979 108.764 47.0709 108.764C41.1047 108.764 35.5569 106.484 31.4491 102.343C27.3185 98.1808 25.0442 92.5271 25.0442 86.4241C25.0442 73.176 35.7071 61.7469 48.8131 60.947C49.2937 60.9177 49.7803 60.9028 50.2604 60.9028ZM50.2589 59.7251C49.7576 59.7251 49.2512 59.7405 48.742 59.7713C35.0264 60.6085 23.8735 72.5427 23.8735 86.4241C23.8735 99.7372 34.1308 109.942 47.0694 109.942C47.6216 109.942 48.1798 109.924 48.7415 109.886C62.4101 108.966 73.4568 97.0389 73.4568 83.243C73.4578 69.9607 63.2197 59.7241 50.2589 59.7251Z" fill="white"/>
<path d="M59.3302 98.0727C58.6036 98.1577 57.873 97.9276 57.3138 97.3598L37.8791 77.6443C36.6041 76.3509 36.6041 74.1596 37.8791 72.7686C39.1441 71.3887 41.1733 71.335 42.4127 72.6295L61.3204 92.3823C62.4081 93.5187 62.4081 95.5354 61.3204 96.903C60.7736 97.591 60.0534 97.9882 59.3302 98.0727Z" fill="white"/>
<path d="M40.1617 100.317C39.3392 100.414 38.5123 100.175 37.8791 99.5745C36.6041 98.368 36.6041 96.1768 37.8791 94.6988L57.3138 72.1716C58.4307 70.8767 60.2248 70.8289 61.3204 72.0484C62.4081 73.2588 62.4081 75.2756 61.3204 76.5691L42.4127 99.058C41.7943 99.7938 40.9802 100.221 40.1617 100.317Z" fill="white"/>
<path d="M94.5838 67.0672C92.969 65.3323 97.439 58.8146 99.8318 55.9582C101.922 53.4632 104.07 50.8986 106.708 51.2232C109.025 51.5081 111.278 53.9663 111.413 56.3221C111.776 62.6603 96.8793 69.5334 94.5838 67.0672Z" fill="url(#paint12_linear_156_3013)"/>
<path d="M113.971 134.044C114.275 134.292 114.331 134.913 114.367 135.319C114.383 135.501 114.392 135.591 114.372 135.655C114.225 136.123 113.324 136.171 111.913 136.316C109.682 136.546 109.018 136.723 108.844 136.389C108.681 136.075 109.076 135.563 109.121 135.506C109.361 135.202 109.655 135.092 110.224 134.903C111.276 134.555 111.987 134.364 112.203 134.306C113.547 133.945 113.771 133.881 113.971 134.044Z" fill="url(#paint13_linear_156_3013)"/>
<path d="M112.644 131.993L112.421 134.551C112.484 134.675 113.24 135.045 113.84 134.727L114.414 132.213L112.644 131.993Z" fill="url(#paint14_linear_156_3013)"/>
<path d="M96.2799 133.715C96.644 134.119 96.727 134.865 96.4103 135.232C96.0991 135.593 95.6308 135.323 94.3031 135.363C92.8804 135.405 92.5094 135.743 91.5428 135.475C91.152 135.366 90.4624 135.103 90.4758 134.822C90.4852 134.625 90.8359 134.523 92.0091 134.128C93.6737 133.567 93.6663 133.536 94.02 133.477C94.9072 133.329 95.7988 133.18 96.2799 133.715Z" fill="url(#paint15_linear_156_3013)"/>
<path d="M95.3686 131.38L94.6553 133.768C94.7091 133.896 95.4343 134.323 96.0567 134.053L97.1162 131.735L95.3686 131.38Z" fill="url(#paint16_linear_156_3013)"/>
<path d="M101.707 79.0752C101.605 87.1016 101.06 96.1257 99.7547 105.93C98.464 115.62 96.6555 124.376 94.6826 132.075C95.593 132.322 96.5029 132.569 97.4133 132.815C99.7226 130.648 102.636 127.237 104.041 122.416C104.914 119.424 104.623 117.887 105.177 114.207C106.058 108.347 107.842 105.278 109.687 100.552C111.345 96.3066 113.304 90.0753 114.354 81.7462C110.138 80.8559 105.923 79.9655 101.707 79.0752Z" fill="url(#paint17_linear_156_3013)"/>
<path d="M109.923 78.3086C110.481 88.5164 110.938 98.9145 111.286 109.497C111.547 117.437 111.738 125.277 111.865 133.014C112.794 133.13 113.724 133.246 114.654 133.361C115.553 131.678 116.746 129.104 117.563 125.805C118.556 121.799 118.326 119.42 118.761 115.268C119.25 110.611 119.959 109.596 121.216 103.722C123.768 91.7993 125.044 85.8379 122.198 82.1295C121.274 80.9259 118.378 77.906 109.923 78.3086Z" fill="url(#paint18_linear_156_3013)"/>
<path d="M123.474 52.654C121.297 52.0376 118.106 51.3173 114.198 51.0951C108.624 50.7779 105.836 50.6193 103.861 51.9551C99.2999 55.0407 102.831 62.1613 100.964 79.8138C100.697 82.3347 100.638 84.8734 100.444 87.4012C100.125 91.5864 100.052 91.8136 100.341 92.2377C102.156 94.8972 108.925 90.886 118.848 92.4713C124.4 93.3587 126.918 95.4023 128.439 93.9283C130.213 92.2093 128.692 87.5852 127.382 83.6043C125.878 79.0348 124.949 78.9762 124.096 75.5352C123.204 71.9385 123.744 70.0863 123.883 64.4147C123.949 61.7005 123.935 57.6614 123.474 52.654Z" fill="url(#paint19_linear_156_3013)"/>
<g opacity="0.3">
<path d="M109.981 85.7938C112.574 85.5895 114.257 87.0649 116.495 85.9151C119.565 84.3383 120.551 79.4322 120.356 75.9599C120.058 70.684 117.065 69.2931 117.581 65.8829C117.86 64.0386 119.169 61.5899 123.866 59.0884C123.929 61.1937 123.917 62.9882 123.882 64.414C123.743 70.086 123.204 71.9378 124.096 75.5344C124.949 78.9754 125.878 79.0346 127.381 83.6035C128.691 87.5844 130.212 92.2085 128.439 93.9276C126.918 95.402 124.399 93.3579 118.848 92.4705C110.298 91.1045 104.092 93.8898 101.377 92.9865C104.658 87.5307 107.634 85.9782 109.981 85.7938Z" fill="url(#paint20_linear_156_3013)"/>
</g>
<path d="M119.936 53.0159C121.789 51.4843 125.513 53.2182 126.508 53.6815C132.06 56.266 137.045 63.23 135.81 70.5898C135.625 71.6934 134.766 76.8564 130.422 79.3579C126.502 81.6153 121.21 81.0347 116.969 77.8377C116.389 77.3202 115.81 76.8027 115.23 76.2852C114.66 75.6648 114.09 75.0449 113.52 74.4245C114.416 73.6744 115.938 72.5922 118.077 71.8977C120.897 70.982 122.95 72.625 124.258 71.3757C125.161 70.5137 125.163 68.9911 124.94 68.0685C124.491 66.2088 122.861 65.6858 121.502 64.3655C118.307 61.264 117.719 54.8497 119.936 53.0159Z" fill="url(#paint21_linear_156_3013)"/>
<path d="M93.3181 77.0418L118.145 76.6685L111.543 79.8748L93.2549 78.6703L93.3181 77.0418Z" fill="url(#paint22_linear_156_3013)"/>
<path d="M119.021 77.333C119.021 77.8008 118.73 78.2183 118.293 78.3779L110.36 81.5077L110.324 79.3378L118.145 76.6688C118.584 76.5421 119.021 76.8737 119.021 77.333Z" fill="url(#paint23_linear_156_3013)"/>
<path d="M115.198 75.855C115.35 75.8207 114.456 74.0267 113.753 74.234C113.051 74.4412 109.616 76.4446 109.303 77.2693C108.991 78.094 108.991 78.094 108.991 78.094C108.991 78.094 110.489 78.2119 111.419 77.8977C112.349 77.5835 113.959 76.1329 115.198 75.855Z" fill="url(#paint24_linear_156_3013)"/>
<path d="M109.667 64.1136L111.417 80.1485C111.477 80.7018 110.707 81.526 110.155 81.4997L84.483 79.9139C84.0611 79.8935 83.7099 79.5813 83.6383 79.1622L80.4161 63.6752C80.3198 63.1115 81.3265 62.5293 81.8946 62.5452L108.797 63.3063C109.247 63.3197 109.618 63.6642 109.667 64.1136Z" fill="url(#paint25_linear_156_3013)"/>
<path d="M109.079 64.5819L110.83 80.6173C110.89 81.1706 110.445 81.6473 109.893 81.621L83.8959 80.3822C83.474 80.3623 83.1228 80.0496 83.0512 79.6305L80.3951 64.0729C80.2988 63.5092 80.7394 62.9981 81.3075 63.014L108.21 63.7751C108.66 63.788 109.031 64.132 109.079 64.5819Z" fill="url(#paint26_linear_156_3013)"/>
<path opacity="0.3" d="M93.8142 76.6248C96.084 75.6564 95.2828 73.8101 97.9635 71.5095C101.5 68.4746 105.104 69.7905 106.366 67.4381C106.759 66.7054 106.946 65.5655 106.262 63.7202L108.21 63.7754C108.659 63.7878 109.031 64.1323 109.08 64.5817L110.83 80.6171C110.89 81.1704 110.445 81.6471 109.893 81.6208L83.8963 80.382C83.4744 80.3621 83.1232 80.0494 83.0516 79.6303L82.6851 77.4833C83.4739 77.0414 84.4164 76.6397 85.516 76.4155C89.3294 75.6375 91.2006 77.7398 93.8142 76.6248Z" fill="url(#paint27_linear_156_3013)"/>
<path d="M82.2577 78.139C82.2152 78.0098 82.3051 77.8766 82.44 77.8701C82.9893 77.8418 84.2637 77.8303 84.9671 78.2638C85.881 78.827 87.0625 79.8551 86.0677 80.3735L85.1385 80.8582C85.096 80.8806 85.0496 80.8876 85.0027 80.8771C84.6727 80.804 83.2827 80.4939 83.131 80.4168C82.9922 80.3467 82.4622 78.7644 82.2577 78.139Z" fill="url(#paint28_linear_156_3013)"/>
<path d="M113.781 44.9658C113.767 46.6287 113.952 47.948 114.126 48.8513C114.325 49.8862 114.47 50.1537 114.653 50.3704C114.93 50.697 115.349 50.9709 117.717 51.562C119.006 51.8836 119.171 51.8747 119.2 52.0035C119.339 52.6313 115.825 54.7709 112.194 54.2554C109.973 53.9397 107.951 52.6641 108.075 51.9945C108.2 51.3204 110.42 51.6823 111.081 50.4624C111.541 49.6138 111.025 48.4093 110.416 47.4121C111.006 46.2981 113.191 46.0794 113.781 44.9658Z" fill="url(#paint29_linear_156_3013)"/>
<path d="M109.657 45.6235C109.133 44.9226 109.101 43.6987 109.705 42.9252C110.225 42.2596 111.043 42.1646 111.532 42.1074C112.951 41.9424 114.743 42.5389 115.366 43.8533C115.735 44.6323 114.936 46.2514 114.811 46.5422C114.67 46.8713 114.413 46.9841 114.176 47.2332C113.847 47.5782 113.331 48.127 112.49 49.0447C112.425 48.7737 112.326 48.4387 112.168 48.0753C112.107 47.9356 111.863 47.3893 111.493 46.9364C110.754 46.0287 110.154 46.2877 109.657 45.6235Z" fill="url(#paint30_linear_156_3013)"/>
<path d="M113.69 48.273C113.69 48.273 112.757 49.8136 110.899 49.6918C109.236 49.5829 108.992 45.8287 110.054 45.0323C110.409 44.7664 111.119 44.656 111.696 44.8191C112.037 44.915 112.152 45.0577 112.712 45.2038C113.229 45.3386 113.375 45.2814 113.531 45.4131C113.726 45.5782 113.869 45.9833 113.543 47.0809C113.861 46.7578 114.242 46.6335 114.511 46.7618C114.554 46.7822 114.668 46.8602 114.733 46.979C114.965 47.4075 114.576 47.9554 113.69 48.273Z" fill="url(#paint31_linear_156_3013)"/>
<path d="M113.606 45.1887C113.526 45.2488 113.771 45.5501 113.79 45.9766C113.825 46.8043 112.993 47.7975 112.144 47.8815C111.642 47.9312 111.504 47.627 110.674 47.5385C110.16 47.4838 109.733 47.5494 109.464 47.6086C109.203 48.5163 109.449 49.4211 110.051 49.8406C110.7 50.2925 111.529 50.0186 111.875 49.9038C112.107 49.8272 112.85 49.5826 113.238 48.8971C113.643 48.1828 113.246 47.7518 113.71 47.2686C113.944 47.025 114.251 46.9191 114.551 46.4473C114.633 46.3191 114.687 46.2057 114.72 46.1292C114.291 45.6718 113.723 45.1012 113.606 45.1887Z" fill="url(#paint32_linear_156_3013)"/>
<path d="M110.067 47.9458C110.067 47.9458 110.427 48.1349 111.048 48.0996C111.078 48.0976 111.111 48.1065 111.115 48.1224C111.129 48.1817 110.731 48.4479 110.364 48.3439C110.104 48.2702 109.901 48.0214 109.936 47.9582C109.951 47.9319 110.01 47.9353 110.067 47.9458Z" fill="url(#paint33_linear_156_3013)"/>
<defs>
<linearGradient id="paint0_linear_156_3013" x1="70.5122" y1="64.6689" x2="100.811" y2="90.5627" gradientUnits="userSpaceOnUse">
<stop stop-color="#FF9085"/>
<stop offset="1" stop-color="#FB6FBB"/>
</linearGradient>
<linearGradient id="paint1_linear_156_3013" x1="97.2234" y1="75.0258" x2="85.3072" y2="106.809" gradientUnits="userSpaceOnUse">
<stop stop-color="#AA80F9"/>
<stop offset="0.9964" stop-color="#6165D7"/>
</linearGradient>
<linearGradient id="paint2_linear_156_3013" x1="118.604" y1="36.8295" x2="100.886" y2="31.8473" gradientUnits="userSpaceOnUse">
<stop stop-color="#311944"/>
<stop offset="1" stop-color="#A03976"/>
</linearGradient>
<linearGradient id="paint3_linear_156_3013" x1="118.558" y1="36.9948" x2="100.84" y2="32.0126" gradientUnits="userSpaceOnUse">
<stop stop-color="#311944"/>
<stop offset="1" stop-color="#A03976"/>
</linearGradient>
<linearGradient id="paint4_linear_156_3013" x1="100.439" y1="25.5725" x2="100.719" y2="48.0678" gradientUnits="userSpaceOnUse">
<stop stop-color="#FF9085"/>
<stop offset="1" stop-color="#FB6FBB"/>
</linearGradient>
<linearGradient id="paint5_linear_156_3013" x1="116.559" y1="26.4044" x2="81.8515" y2="16.6449" gradientUnits="userSpaceOnUse">
<stop stop-color="#311944"/>
<stop offset="1" stop-color="#A03976"/>
</linearGradient>
<linearGradient id="paint6_linear_156_3013" x1="116.468" y1="26.7272" x2="81.7606" y2="16.9677" gradientUnits="userSpaceOnUse">
<stop stop-color="#311944"/>
<stop offset="1" stop-color="#A03976"/>
</linearGradient>
<linearGradient id="paint7_linear_156_3013" x1="80.975" y1="4.35177" x2="81.5242" y2="48.4175" gradientUnits="userSpaceOnUse">
<stop stop-color="#FF9085"/>
<stop offset="1" stop-color="#FB6FBB"/>
</linearGradient>
<linearGradient id="paint8_linear_156_3013" x1="33.9582" y1="121.643" x2="165.54" y2="121.643" gradientUnits="userSpaceOnUse">
<stop offset="0.494" stop-color="#EBEFF2"/>
<stop offset="1" stop-color="white"/>
</linearGradient>
<linearGradient id="paint9_linear_156_3013" x1="9.97123" y1="67.7854" x2="84.61" y2="67.7854" gradientUnits="userSpaceOnUse">
<stop offset="0.00359712" stop-color="#E38DDD"/>
<stop offset="1" stop-color="#9571F6"/>
</linearGradient>
<linearGradient id="paint10_linear_156_3013" x1="47.6872" y1="20.8677" x2="41.2319" y2="78.8448" gradientUnits="userSpaceOnUse">
<stop stop-color="#40447E"/>
<stop offset="0.9964" stop-color="#3C3B6B"/>
</linearGradient>
<linearGradient id="paint11_linear_156_3013" x1="23.8739" y1="84.8339" x2="73.4577" y2="84.8339" gradientUnits="userSpaceOnUse">
<stop stop-color="#FF9085"/>
<stop offset="1" stop-color="#FB6FBB"/>
</linearGradient>
<linearGradient id="paint12_linear_156_3013" x1="102.146" y1="64.631" x2="85.9035" y2="142.033" gradientUnits="userSpaceOnUse">
<stop stop-color="#FFC444"/>
<stop offset="0.9964" stop-color="#F36F56"/>
</linearGradient>
<linearGradient id="paint13_linear_156_3013" x1="108.834" y1="135.188" x2="114.39" y2="135.348" gradientUnits="userSpaceOnUse">
<stop stop-color="#444B8C"/>
<stop offset="0.9964" stop-color="#26264F"/>
</linearGradient>
<linearGradient id="paint14_linear_156_3013" x1="112.421" y1="133.423" x2="114.413" y2="133.423" gradientUnits="userSpaceOnUse">
<stop stop-color="#FFC444"/>
<stop offset="0.9964" stop-color="#F36F56"/>
</linearGradient>
<linearGradient id="paint15_linear_156_3013" x1="90.7922" y1="133.648" x2="96.4912" y2="135.205" gradientUnits="userSpaceOnUse">
<stop stop-color="#444B8C"/>
<stop offset="0.9964" stop-color="#26264F"/>
</linearGradient>
<linearGradient id="paint16_linear_156_3013" x1="94.6551" y1="132.76" x2="97.1162" y2="132.76" gradientUnits="userSpaceOnUse">
<stop stop-color="#FFC444"/>
<stop offset="0.9964" stop-color="#F36F56"/>
</linearGradient>
<linearGradient id="paint17_linear_156_3013" x1="92.7316" y1="123.975" x2="108.65" y2="88.3188" gradientUnits="userSpaceOnUse">
<stop stop-color="#40447E"/>
<stop offset="0.9964" stop-color="#3C3B6B"/>
</linearGradient>
<linearGradient id="paint18_linear_156_3013" x1="100.467" y1="125.668" x2="120.635" y2="92.2594" gradientUnits="userSpaceOnUse">
<stop stop-color="#40447E"/>
<stop offset="0.9964" stop-color="#3C3B6B"/>
</linearGradient>
<linearGradient id="paint19_linear_156_3013" x1="116.715" y1="67.6879" x2="100.473" y2="145.089" gradientUnits="userSpaceOnUse">
<stop stop-color="#FFC444"/>
<stop offset="0.9964" stop-color="#F36F56"/>
</linearGradient>
<linearGradient id="paint20_linear_156_3013" x1="121.114" y1="116.631" x2="113.984" y2="82.9784" gradientUnits="userSpaceOnUse">
<stop stop-color="#FFC444"/>
<stop offset="0.9964" stop-color="#F36F56"/>
</linearGradient>
<linearGradient id="paint21_linear_156_3013" x1="127.118" y1="60.7054" x2="114.27" y2="121.932" gradientUnits="userSpaceOnUse">
<stop stop-color="#FFC444"/>
<stop offset="0.9964" stop-color="#F36F56"/>
</linearGradient>
<linearGradient id="paint22_linear_156_3013" x1="102.044" y1="87.3709" x2="105.081" y2="78.8196" gradientUnits="userSpaceOnUse">
<stop stop-color="#311944"/>
<stop offset="1" stop-color="#893976"/>
</linearGradient>
<linearGradient id="paint23_linear_156_3013" x1="115.164" y1="74.9642" x2="114.049" y2="82.6189" gradientUnits="userSpaceOnUse">
<stop stop-color="#311944"/>
<stop offset="1" stop-color="#893976"/>
</linearGradient>
<linearGradient id="paint24_linear_156_3013" x1="108.992" y1="76.1666" x2="115.215" y2="76.1666" gradientUnits="userSpaceOnUse">
<stop stop-color="#FFC444"/>
<stop offset="0.9964" stop-color="#F36F56"/>
</linearGradient>
<linearGradient id="paint25_linear_156_3013" x1="93.3443" y1="75.6347" x2="99.2493" y2="67.3026" gradientUnits="userSpaceOnUse">
<stop stop-color="#444B8C"/>
<stop offset="0.9964" stop-color="#26264F"/>
</linearGradient>
<linearGradient id="paint26_linear_156_3013" x1="104.575" y1="89.4831" x2="91.6302" y2="63.3542" gradientUnits="userSpaceOnUse">
<stop stop-color="#311944"/>
<stop offset="1" stop-color="#893976"/>
</linearGradient>
<linearGradient id="paint27_linear_156_3013" x1="110.835" y1="72.6712" x2="82.6844" y2="72.6712" gradientUnits="userSpaceOnUse">
<stop stop-color="#311944"/>
<stop offset="1" stop-color="#893976"/>
</linearGradient>
<linearGradient id="paint28_linear_156_3013" x1="82.247" y1="79.3701" x2="86.4457" y2="79.3701" gradientUnits="userSpaceOnUse">
<stop stop-color="#FFC444"/>
<stop offset="0.9964" stop-color="#F36F56"/>
</linearGradient>
<linearGradient id="paint29_linear_156_3013" x1="114.05" y1="44.9819" x2="112.963" y2="63.3468" gradientUnits="userSpaceOnUse">
<stop stop-color="#FFC444"/>
<stop offset="0.9964" stop-color="#F36F56"/>
</linearGradient>
<linearGradient id="paint30_linear_156_3013" x1="115.837" y1="53.4198" x2="111.627" y2="42.6787" gradientUnits="userSpaceOnUse">
<stop stop-color="#311944"/>
<stop offset="1" stop-color="#6B3976"/>
</linearGradient>
<linearGradient id="paint31_linear_156_3013" x1="109.414" y1="47.221" x2="114.799" y2="47.221" gradientUnits="userSpaceOnUse">
<stop stop-color="#FFC444"/>
<stop offset="0.9964" stop-color="#F36F56"/>
</linearGradient>
<linearGradient id="paint32_linear_156_3013" x1="114.551" y1="53.929" x2="110.337" y2="43.177" gradientUnits="userSpaceOnUse">
<stop stop-color="#311944"/>
<stop offset="1" stop-color="#6B3976"/>
</linearGradient>
<linearGradient id="paint33_linear_156_3013" x1="109.932" y1="48.1528" x2="111.115" y2="48.1528" gradientUnits="userSpaceOnUse">
<stop stop-color="#FFC444"/>
<stop offset="0.9964" stop-color="#F36F56"/>
</linearGradient>
</defs>
</svg>
