<svg width="24" height="24" viewBox="0 0 24 24" fill="none" xmlns="http://www.w3.org/2000/svg">
<path fill-rule="evenodd" clip-rule="evenodd" d="M8.5 2C7.67157 2 7 2.67157 7 3.5C7 4.32843 7.67157 5 8.5 5H15.5C16.3284 5 17 4.32843 17 3.5C17 2.67157 16.3284 2 15.5 2H8.5ZM16 7C16.3426 6.99993 16.6815 7.07508 16.992 7.22073C17.3027 7.36647 17.5779 7.57948 17.7963 7.84549C17.8106 7.86302 17.8244 7.88104 17.8376 7.8995L19.5083 10.243C19.8256 10.6435 20.0001 11.1398 20 11.6532V18.7143C20 19.3272 19.7512 19.9108 19.3153 20.3378C18.8801 20.7641 18.2942 21 17.6875 21H6.31254C5.7058 21 5.11986 20.7641 4.68467 20.3378C4.24877 19.9108 4 19.3272 4 18.7143V11.6527C3.99986 11.1393 4.17447 10.6434 4.49181 10.2428L6.16341 7.8993C6.17653 7.88091 6.19028 7.86296 6.20462 7.84549C6.42283 7.57968 6.69775 7.36678 7.00817 7.22106C7.31853 7.07536 7.65756 7.0001 8 7H16ZM16.1427 9.03144C16.0991 9.011 16.0504 8.99998 16.0004 9H8C7.9501 9.00006 7.90154 9.01109 7.85808 9.03149C7.82181 9.04851 7.79044 9.07141 7.76495 9.09813L6.10332 11.4277C6.09031 11.4459 6.0767 11.4637 6.0625 11.481C6.02056 11.5322 5.99997 11.5931 6 11.6527L6 18.7143C6 18.7833 6.0278 18.8538 6.0842 18.9091C6.1413 18.965 6.22306 19 6.31254 19H17.6875C17.7769 19 17.8587 18.965 17.9158 18.9091C17.9722 18.8538 18 18.7833 18 18.7143V11.6522C18 11.5927 17.9794 11.5322 17.9375 11.481C17.9233 11.4637 17.9096 11.4458 17.8965 11.4275L16.2359 9.09808C16.2104 9.07136 16.179 9.04846 16.1427 9.03144ZM12 10C12.5523 10 13 10.4477 13 11V13H15C15.5523 13 16 13.4477 16 14C16 14.5523 15.5523 15 15 15H13V17C13 17.5523 12.5523 18 12 18C11.4477 18 11 17.5523 11 17V15H9C8.44772 15 8 14.5523 8 14C8 13.4477 8.44772 13 9 13H11V11C11 10.4477 11.4477 10 12 10Z" fill="#1376F8"/>
</svg>
