<svg width="24" height="24" viewBox="0 0 24 24" fill="none" xmlns="http://www.w3.org/2000/svg">
<path d="M18 3.5C18 3.77614 17.7761 4 17.5 4H2.5C2.22386 4 2 3.77614 2 3.5V2.5C2 2.22386 2.22386 2 2.5 2H17.5C17.7761 2 18 2.22386 18 2.5V3.5ZM17.5 13.5C17.5 13.2239 17.2761 13 17 13H16.5C16.2239 13 16 13.2239 16 13.5V17.7165C16 17.8924 16.0924 18.0553 16.2433 18.1456L19.1861 19.9063C19.421 20.0469 19.7253 19.9724 19.8687 19.7391L20.0935 19.3735C20.2399 19.1353 20.1626 18.8234 19.9219 18.6811L17.5 17.25V13.5ZM24 17C24 20.87 20.87 24 17 24C13.47 24 10.57 21.39 10.08 18H2.5C2.22386 18 2 17.7761 2 17.5V12H1.5C1.22386 12 1 11.7761 1 11.5V10L1.91961 5.40194C1.96635 5.16823 2.17156 5 2.4099 5H17.5901C17.8284 5 18.0336 5.16823 18.0804 5.40194L19 10V10.29C21.89 11.16 24 13.83 24 17ZM3.04 10H16.96L16.36 7H3.64L3.04 10ZM4 16H10V12H4V16ZM22 17C22 14.24 19.76 12 17 12C14.24 12 12 14.24 12 17C12 19.76 14.24 22 17 22C19.76 22 22 19.76 22 17Z" fill="#1376F8"/>
</svg>
