<svg width="24" height="24" viewBox="0 0 24 24" fill="none" xmlns="http://www.w3.org/2000/svg">
<path d="M20 6H16V4C16 2.9 15.1 2 14 2H10C8.9 2 8 2.9 8 4V6H4C2.9 6 2 6.9 2 8V20C2 21.1 2.9 22 4 22H20C21.1 22 22 21.1 22 20V8C22 6.9 21.1 6 20 6ZM10 4H14V6H10V4ZM20 20H4V8H20V20Z" fill="#1376F8"/>
<path d="M13 11C13 10.4477 12.5523 10 12 10C11.4477 10 11 10.4477 11 11V13H9C8.44772 13 8 13.4477 8 14C8 14.5523 8.44772 15 9 15H11V17C11 17.5523 11.4477 18 12 18C12.5523 18 13 17.5523 13 17V15H15C15.5523 15 16 14.5523 16 14C16 13.4477 15.5523 13 15 13H13V11Z" fill="#1376F8"/>
</svg>
