<svg width="24" height="24" viewBox="0 0 24 24" fill="none" xmlns="http://www.w3.org/2000/svg">
<path d="M14.25 7.50006C14.25 7.2017 14.3685 6.91555 14.5795 6.70457C14.7905 6.49359 15.0766 6.37506 15.375 6.37506H22.875C23.1733 6.37506 23.4595 6.49359 23.6705 6.70457C23.8814 6.91555 24 7.2017 24 7.50006C24 7.79843 23.8814 8.08458 23.6705 8.29556C23.4595 8.50654 23.1733 8.62506 22.875 8.62506H15.375C15.0766 8.62506 14.7905 8.50654 14.5795 8.29556C14.3685 8.08458 14.25 7.79843 14.25 7.50006ZM22.875 10.8751H15.375C15.0766 10.8751 14.7905 10.9936 14.5795 11.2046C14.3685 11.4155 14.25 11.7017 14.25 12.0001C14.25 12.2984 14.3685 12.5846 14.5795 12.7956C14.7905 13.0065 15.0766 13.1251 15.375 13.1251H22.875C23.1733 13.1251 23.4595 13.0065 23.6705 12.7956C23.8814 12.5846 24 12.2984 24 12.0001C24 11.7017 23.8814 11.4155 23.6705 11.2046C23.4595 10.9936 23.1733 10.8751 22.875 10.8751ZM22.875 15.3751H17.625C17.3266 15.3751 17.0405 15.4936 16.8295 15.7046C16.6185 15.9155 16.5 16.2017 16.5 16.5001C16.5 16.7984 16.6185 17.0846 16.8295 17.2956C17.0405 17.5065 17.3266 17.6251 17.625 17.6251H22.875C23.1733 17.6251 23.4595 17.5065 23.6705 17.2956C23.8814 17.0846 24 16.7984 24 16.5001C24 16.2017 23.8814 15.9155 23.6705 15.7046C23.4595 15.4936 23.1733 15.3751 22.875 15.3751ZM14.5893 17.7188C14.6263 17.8619 14.6347 18.0108 14.6141 18.1571C14.5934 18.3034 14.5442 18.4442 14.4692 18.5715C14.3941 18.6988 14.2947 18.81 14.1767 18.8989C14.0587 18.9878 13.9243 19.0525 13.7812 19.0894C13.6382 19.1264 13.4892 19.1348 13.3429 19.1141C13.1966 19.0935 13.0558 19.0443 12.9285 18.9692C12.8013 18.8942 12.69 18.7948 12.6012 18.6768C12.5123 18.5588 12.4475 18.4244 12.4106 18.2813C11.8743 16.1973 9.7631 14.6251 7.49997 14.6251C5.23685 14.6251 3.1256 16.1963 2.58935 18.2813C2.55241 18.4244 2.48766 18.5588 2.39879 18.6768C2.30993 18.7948 2.19868 18.8942 2.0714 18.9692C1.94413 19.0443 1.80332 19.0935 1.65702 19.1141C1.51071 19.1348 1.36178 19.1264 1.21872 19.0894C1.07566 19.0525 0.941281 18.9878 0.823246 18.8989C0.705211 18.81 0.605836 18.6988 0.530795 18.5715C0.455754 18.4442 0.406516 18.3034 0.385892 18.1571C0.365269 18.0108 0.373664 17.8619 0.410598 17.7188C0.914973 15.7594 2.29404 14.1413 4.07716 13.2188C3.38826 12.5399 2.91688 11.6714 2.72299 10.7238C2.5291 9.77624 2.62147 8.7924 2.98834 7.89746C3.35521 7.00252 3.98 6.23694 4.78323 5.69812C5.58646 5.1593 6.53182 4.87158 7.49904 4.87158C8.46625 4.87158 9.41161 5.1593 10.2148 5.69812C11.0181 6.23694 11.6429 7.00252 12.0097 7.89746C12.3766 8.7924 12.469 9.77624 12.2751 10.7238C12.0812 11.6714 11.6098 12.5399 10.9209 13.2188C12.7059 14.1423 14.085 15.7604 14.5893 17.7188ZM7.49997 12.3751C8.01915 12.3751 8.52667 12.2211 8.95835 11.9327C9.39002 11.6442 9.72648 11.2343 9.92516 10.7546C10.1238 10.275 10.1758 9.74715 10.0745 9.23795C9.97325 8.72875 9.72324 8.26102 9.35613 7.89391C8.98902 7.5268 8.52129 7.27679 8.01209 7.1755C7.50289 7.07422 6.97509 7.1262 6.49543 7.32488C6.01577 7.52356 5.6058 7.86001 5.31737 8.29169C5.02893 8.72337 4.87497 9.23089 4.87497 9.75006C4.87497 10.0948 4.94287 10.4361 5.07479 10.7546C5.20671 11.0731 5.40006 11.3625 5.64382 11.6062C6.1361 12.0985 6.80378 12.3751 7.49997 12.3751Z" fill="#1376F8"/>
</svg>
