<svg width="92" height="28" viewBox="0 0 92 28" fill="none" xmlns="http://www.w3.org/2000/svg">
<rect width="92" height="28" rx="4" fill="#FFF4B9"/>
<path d="M19.4809 19H17.355L17.3686 17.6396H19.4809C20.0962 17.6396 20.6111 17.5052 21.0259 17.2363C21.4451 16.9674 21.7596 16.5824 21.9692 16.0811C22.1834 15.5798 22.2905 14.9827 22.2905 14.29V13.75C22.2905 13.2122 22.229 12.736 22.1059 12.3213C21.9874 11.9066 21.8097 11.5579 21.5727 11.2754C21.3403 10.9928 21.0532 10.7786 20.7114 10.6328C20.3742 10.487 19.9845 10.4141 19.5425 10.4141H17.3139V9.04688H19.5425C20.2033 9.04688 20.8071 9.15853 21.354 9.38184C21.9009 9.60059 22.3725 9.91732 22.769 10.332C23.1701 10.7467 23.4777 11.2435 23.6919 11.8223C23.9061 12.401 24.0132 13.0482 24.0132 13.7637V14.29C24.0132 15.0055 23.9061 15.6527 23.6919 16.2314C23.4777 16.8102 23.1701 17.307 22.769 17.7217C22.368 18.1318 21.8895 18.4486 21.3335 18.6719C20.782 18.8906 20.1645 19 19.4809 19ZM18.3052 9.04688V19H16.5893V9.04688H18.3052ZM20.1235 13.3945V14.5293H15.5298V13.3945H20.1235ZM30.0217 17.5166V13.9893C30.0217 13.7249 29.9738 13.4971 29.8781 13.3057C29.7824 13.1143 29.6366 12.9661 29.4406 12.8613C29.2492 12.7565 29.0077 12.7041 28.716 12.7041C28.4471 12.7041 28.2147 12.7497 28.0187 12.8408C27.8228 12.932 27.6701 13.055 27.5607 13.21C27.4514 13.3649 27.3967 13.5404 27.3967 13.7363H25.7561C25.7561 13.4447 25.8267 13.1621 25.968 12.8887C26.1092 12.6152 26.3143 12.3714 26.5832 12.1572C26.8521 11.943 27.1734 11.7744 27.5471 11.6514C27.9208 11.5283 28.34 11.4668 28.8049 11.4668C29.3609 11.4668 29.8531 11.5602 30.2814 11.7471C30.7144 11.9339 31.0539 12.2165 31.3 12.5947C31.5507 12.9684 31.676 13.4378 31.676 14.0029V17.291C31.676 17.6283 31.6988 17.9313 31.7443 18.2002C31.7945 18.4645 31.8651 18.6947 31.9562 18.8906V19H30.2678C30.1903 18.8223 30.1288 18.5967 30.0832 18.3232C30.0422 18.0452 30.0217 17.7764 30.0217 17.5166ZM30.2609 14.502L30.2746 15.5205H29.092C28.7867 15.5205 28.5178 15.5501 28.2854 15.6094C28.0529 15.6641 27.8592 15.7461 27.7043 15.8555C27.5493 15.9648 27.4331 16.097 27.3557 16.252C27.2782 16.4069 27.2395 16.5824 27.2395 16.7783C27.2395 16.9743 27.285 17.1543 27.3762 17.3184C27.4673 17.4779 27.5995 17.6032 27.7727 17.6943C27.9504 17.7855 28.1646 17.8311 28.4152 17.8311C28.7525 17.8311 29.0464 17.7627 29.2971 17.626C29.5523 17.4847 29.7528 17.3138 29.8986 17.1133C30.0445 16.9082 30.1219 16.7145 30.1311 16.5322L30.6643 17.2637C30.6096 17.4505 30.5161 17.651 30.384 17.8652C30.2518 18.0794 30.0786 18.2845 29.8645 18.4805C29.6548 18.6719 29.4019 18.8291 29.1057 18.9521C28.814 19.0752 28.4768 19.1367 28.0939 19.1367C27.6109 19.1367 27.1802 19.041 26.802 18.8496C26.4237 18.6536 26.1275 18.3916 25.9133 18.0635C25.6991 17.7308 25.592 17.3548 25.592 16.9355C25.592 16.5436 25.6649 16.1973 25.8107 15.8965C25.9611 15.5911 26.1799 15.3359 26.467 15.1309C26.7587 14.9258 27.1141 14.7708 27.5334 14.666C27.9527 14.5566 28.4312 14.502 28.9689 14.502H30.2609ZM35.3124 13.1826V19H33.665V11.6035H35.2167L35.3124 13.1826ZM35.0185 15.0283L34.4853 15.0215C34.4898 14.4974 34.5627 14.0166 34.704 13.5791C34.8499 13.1416 35.0504 12.7656 35.3056 12.4512C35.5654 12.1367 35.8752 11.8952 36.2353 11.7266C36.5953 11.5534 36.9963 11.4668 37.4384 11.4668C37.7939 11.4668 38.1152 11.5169 38.4023 11.6172C38.6939 11.7129 38.9423 11.8701 39.1474 12.0889C39.357 12.3076 39.5165 12.5924 39.6259 12.9434C39.7353 13.2897 39.79 13.7158 39.79 14.2217V19H38.1357V14.2148C38.1357 13.8594 38.0833 13.5791 37.9784 13.374C37.8782 13.1644 37.7301 13.0163 37.5341 12.9297C37.3427 12.8385 37.1034 12.793 36.8163 12.793C36.5338 12.793 36.2808 12.8522 36.0575 12.9707C35.8342 13.0892 35.6451 13.251 35.4902 13.4561C35.3398 13.6611 35.2236 13.8981 35.1415 14.167C35.0595 14.4359 35.0185 14.723 35.0185 15.0283ZM46.4889 11.6035H47.986V18.7949C47.986 19.4603 47.8447 20.0254 47.5621 20.4902C47.2796 20.9551 46.8854 21.3083 46.3795 21.5498C45.8737 21.7959 45.2881 21.9189 44.6227 21.9189C44.3401 21.9189 44.0257 21.8779 43.6793 21.7959C43.3375 21.7139 43.0049 21.5817 42.6813 21.3994C42.3623 21.2217 42.0957 20.987 41.8815 20.6953L42.6539 19.7246C42.9183 20.0391 43.2099 20.2692 43.5289 20.415C43.848 20.5609 44.1829 20.6338 44.5338 20.6338C44.9121 20.6338 45.2334 20.5632 45.4977 20.4219C45.7666 20.2852 45.9739 20.0824 46.1198 19.8135C46.2656 19.5446 46.3385 19.2165 46.3385 18.8291V13.2783L46.4889 11.6035ZM41.4645 15.3838V15.2402C41.4645 14.6797 41.5329 14.1693 41.6696 13.709C41.8063 13.2441 42.0023 12.8454 42.2575 12.5127C42.5127 12.1755 42.8226 11.918 43.1871 11.7402C43.5517 11.5579 43.9642 11.4668 44.4245 11.4668C44.903 11.4668 45.3108 11.5534 45.6481 11.7266C45.9899 11.8997 46.2747 12.1481 46.5026 12.4717C46.7304 12.7907 46.9082 13.1735 47.0358 13.6201C47.1679 14.0622 47.2659 14.5544 47.3297 15.0967V15.5547C47.2705 16.0833 47.1702 16.5664 47.0289 17.0039C46.8877 17.4414 46.7008 17.8197 46.4684 18.1387C46.236 18.4577 45.9489 18.7038 45.6071 18.877C45.2698 19.0501 44.8711 19.1367 44.4108 19.1367C43.9596 19.1367 43.5517 19.0433 43.1871 18.8564C42.8271 18.6696 42.5172 18.4076 42.2575 18.0703C42.0023 17.7331 41.8063 17.3366 41.6696 16.8809C41.5329 16.4206 41.4645 15.9215 41.4645 15.3838ZM43.112 15.2402V15.3838C43.112 15.721 43.1439 16.0355 43.2077 16.3271C43.276 16.6188 43.3786 16.8763 43.5153 17.0996C43.6566 17.3184 43.8343 17.4915 44.0485 17.6191C44.2672 17.7422 44.5247 17.8037 44.8209 17.8037C45.2083 17.8037 45.525 17.7217 45.7711 17.5576C46.0218 17.3936 46.2132 17.1725 46.3454 16.8945C46.4821 16.612 46.5778 16.2975 46.6325 15.9512V14.7139C46.6051 14.445 46.5482 14.1943 46.4616 13.9619C46.3795 13.7295 46.2679 13.5267 46.1266 13.3535C45.9853 13.1758 45.8076 13.0391 45.5934 12.9434C45.3792 12.8431 45.1263 12.793 44.8346 12.793C44.5384 12.793 44.2809 12.8568 44.0621 12.9844C43.8434 13.112 43.6634 13.2874 43.5221 13.5107C43.3854 13.734 43.2829 13.9938 43.2145 14.29C43.1461 14.5863 43.112 14.903 43.112 15.2402ZM56.7628 17.8242C57.0317 17.8242 57.2732 17.7718 57.4874 17.667C57.7061 17.5576 57.8816 17.4072 58.0138 17.2158C58.1505 17.0244 58.2257 16.8034 58.2393 16.5527H59.7911C59.782 17.0312 59.6407 17.4665 59.3673 17.8584C59.0938 18.2503 58.7315 18.5625 58.2804 18.7949C57.8292 19.0228 57.3302 19.1367 56.7833 19.1367C56.2182 19.1367 55.726 19.041 55.3067 18.8496C54.8874 18.6536 54.5388 18.3848 54.2608 18.043C53.9828 17.7012 53.7732 17.307 53.6319 16.8604C53.4952 16.4137 53.4268 15.9352 53.4268 15.4248V15.1855C53.4268 14.6751 53.4952 14.1966 53.6319 13.75C53.7732 13.2988 53.9828 12.9023 54.2608 12.5605C54.5388 12.2188 54.8874 11.9521 55.3067 11.7607C55.726 11.5648 56.2159 11.4668 56.7764 11.4668C57.3689 11.4668 57.8884 11.5853 58.335 11.8223C58.7817 12.0547 59.1326 12.3805 59.3878 12.7998C59.6475 13.2145 59.782 13.6976 59.7911 14.249H58.2393C58.2257 13.9756 58.1573 13.7295 58.0343 13.5107C57.9158 13.2874 57.7472 13.1097 57.5284 12.9775C57.3142 12.8454 57.0567 12.7793 56.7559 12.7793C56.4233 12.7793 56.1475 12.8477 55.9288 12.9844C55.71 13.1165 55.5391 13.2988 55.4161 13.5312C55.293 13.7591 55.2042 14.0166 55.1495 14.3037C55.0994 14.5863 55.0743 14.8802 55.0743 15.1855V15.4248C55.0743 15.7301 55.0994 16.0264 55.1495 16.3135C55.1996 16.6006 55.2862 16.8581 55.4093 17.0859C55.5369 17.3092 55.71 17.4893 55.9288 17.626C56.1475 17.7581 56.4255 17.8242 56.7628 17.8242ZM62.9627 8.5V19H61.3221V8.5H62.9627ZM62.6756 15.0283L62.1424 15.0215C62.1469 14.5111 62.2176 14.0394 62.3543 13.6064C62.4956 13.1735 62.6915 12.7975 62.9422 12.4785C63.1974 12.1549 63.5027 11.9066 63.8582 11.7334C64.2137 11.5557 64.6079 11.4668 65.0408 11.4668C65.4054 11.4668 65.7335 11.5169 66.0252 11.6172C66.3214 11.7174 66.5766 11.8792 66.7908 12.1025C67.005 12.3213 67.1668 12.6084 67.2762 12.9639C67.3901 13.3148 67.4471 13.7432 67.4471 14.249V19H65.7928V14.2354C65.7928 13.8799 65.7404 13.5973 65.6355 13.3877C65.5353 13.1781 65.3872 13.0277 65.1912 12.9365C64.9952 12.8408 64.756 12.793 64.4734 12.793C64.1772 12.793 63.9152 12.8522 63.6873 12.9707C63.464 13.0892 63.2771 13.251 63.1268 13.4561C62.9764 13.6611 62.8624 13.8981 62.785 14.167C62.712 14.4359 62.6756 14.723 62.6756 15.0283ZM75.6978 10.8516H76.7984C76.7984 11.3757 76.7209 11.8268 76.5659 12.2051C76.4155 12.5833 76.1695 12.8727 75.8277 13.0732C75.4904 13.2738 75.0415 13.374 74.481 13.374V12.5605C74.8228 12.5605 75.0803 12.4899 75.2534 12.3486C75.4266 12.2074 75.5428 12.0091 75.6021 11.7539C75.6659 11.4987 75.6978 11.1979 75.6978 10.8516ZM69.0737 15.3838V15.2266C69.0737 14.6934 69.1512 14.1989 69.3062 13.7432C69.4611 13.2829 69.6844 12.8841 69.9761 12.5469C70.2723 12.2051 70.6323 11.9408 71.0562 11.7539C71.4846 11.5625 71.9676 11.4668 72.5054 11.4668C73.0477 11.4668 73.5331 11.5625 73.9614 11.7539C74.3898 11.9408 74.7499 12.2051 75.0415 12.5469C75.3377 12.8841 75.5633 13.2829 75.7183 13.7432C75.8732 14.1989 75.9507 14.6934 75.9507 15.2266V15.3838C75.9507 15.917 75.8732 16.4115 75.7183 16.8672C75.5633 17.3229 75.3377 17.7217 75.0415 18.0635C74.7499 18.4007 74.3921 18.665 73.9683 18.8564C73.5445 19.0433 73.0614 19.1367 72.5191 19.1367C71.9767 19.1367 71.4914 19.0433 71.063 18.8564C70.6392 18.665 70.2792 18.4007 69.9829 18.0635C69.6867 17.7217 69.4611 17.3229 69.3062 16.8672C69.1512 16.4115 69.0737 15.917 69.0737 15.3838ZM70.7212 15.2266V15.3838C70.7212 15.7165 70.7554 16.0309 70.8237 16.3271C70.8921 16.6234 70.9992 16.8831 71.145 17.1064C71.2954 17.3298 71.4823 17.5052 71.7056 17.6328C71.9335 17.7604 72.2046 17.8242 72.5191 17.8242C72.829 17.8242 73.0956 17.7604 73.3189 17.6328C73.5422 17.5052 73.7245 17.3298 73.8657 17.1064C74.0116 16.8831 74.121 16.6234 74.1939 16.3271C74.2668 16.0309 74.3032 15.7165 74.3032 15.3838V15.2266C74.3032 14.8984 74.2668 14.5885 74.1939 14.2969C74.1255 14.0007 74.0184 13.7386 73.8726 13.5107C73.7267 13.2829 73.5399 13.1051 73.312 12.9775C73.0887 12.8454 72.8198 12.7793 72.5054 12.7793C72.1955 12.7793 71.9289 12.8454 71.7056 12.9775C71.4823 13.1051 71.2954 13.2829 71.145 13.5107C70.9992 13.7386 70.8921 14.0007 70.8237 14.2969C70.7554 14.5885 70.7212 14.8984 70.7212 15.2266ZM72.0337 8.5L73.3667 10.5576H71.9927L70.1675 8.5H72.0337Z" fill="#EC942C"/>
</svg>
